<svg xmlns="http://www.w3.org/2000/svg" width="3247.663" height="4276.729" version="1"><g fill="#fff"><path d="M1600.327 4259.124c-31.371-27.855-61.548-46.511-130.827-80.882-77.317-38.358-157.181-70.509-233.5-94.001-38.457-11.838-85.418-23.731-156-39.508-103.378-23.108-154.209-36.672-221-58.972-96.23-32.129-224.726-86.875-292.5-124.619-105.397-58.697-199.837-138.567-276.224-233.612-89.489-111.345-156.031-245.89-191.302-386.801-10.77-43.026-27.013-124.019-33.893-169-25.373-165.891-20.407-334.003 16.425-556 17.595-106.05 40.984-216.22 76.854-362 13.352-54.265 16.768-68.768 23.551-100 42.357-195.014 54.53-359.956 38.047-515.5-9.882-93.255-30.007-183.929-63.145-284.5-24.121-73.206-50.002-139.894-108.085-278.5-12.907-30.8-29.151-69.565-36.097-86.144-6.947-16.579-12.63-30.53-12.63-31.003 0-.472 41.962-22.12 93.25-48.107 98.546-49.932 236.516-120.164 313.25-159.457 331.757-169.884 504.3-254.395 643.779-315.321l17.779-7.766 5.594-9.601c44.77-76.847 100.219-139.493 169.656-191.682 126.339-94.955 284.925-138.981 442.692-122.898 138.009 14.069 265.906 72.363 368.113 167.78 38.783 36.206 73.709 78.662 102.964 125.16l10.672 16.961 15.875 6.851c150.377 64.89 288.418 133.726 721.375 359.726 62.425 32.585 164.8 85.795 227.5 118.243 62.7 32.449 114.509 59.281 115.131 59.627.742.413-11.573 30.198-35.819 86.63-68.649 159.776-91.057 214.487-115.232 281.343-63.919 176.772-90.783 326.927-88.227 493.157.334 21.725 1.065 47.375 1.625 57 6.453 110.99 23.867 221.889 54.567 347.5 26.378 107.928 29.538 121.308 43.445 184 38.69 174.413 63.078 332.992 71.435 464.5 5.269 82.921 4.526 176.259-1.968 247-5.404 58.864-13.601 116.757-26.478 187-13.814 75.356-32.605 136.761-62.302 203.586-80.158 180.377-217.953 334.301-392.678 438.639-44.281 26.443-98.555 53.668-168 84.273-128.805 56.766-222.015 86.293-361.5 114.515-91.439 18.501-135.548 29.412-186.5 46.133-97.671 32.053-207.109 81.136-283.5 127.151-23.855 14.369-30.735 19.44-52.408 38.632-11.224 9.939-21.202 18.071-22.173 18.071-.971 0-10.688-7.922-21.592-17.605z"/><path d="M1600.327 4259.124c-31.371-27.855-61.548-46.511-130.827-80.882-77.317-38.358-157.181-70.509-233.5-94.001-38.457-11.838-85.418-23.731-156-39.508-103.378-23.108-154.209-36.672-221-58.972-96.23-32.129-224.726-86.875-292.5-124.619-105.397-58.697-199.837-138.567-276.224-233.612-89.489-111.345-156.031-245.89-191.302-386.801-10.77-43.026-27.013-124.019-33.893-169-25.373-165.891-20.407-334.003 16.425-556 17.595-106.05 40.984-216.22 76.854-362 13.352-54.265 16.768-68.768 23.551-100 42.357-195.014 54.53-359.956 38.047-515.5-9.882-93.255-30.007-183.929-63.145-284.5-24.121-73.206-50.002-139.894-108.085-278.5-12.907-30.8-29.151-69.565-36.097-86.144-6.947-16.579-12.63-30.53-12.63-31.003 0-.472 41.962-22.12 93.25-48.107 98.546-49.932 236.516-120.164 313.25-159.457 331.757-169.884 504.3-254.395 643.779-315.321l17.779-7.766 5.594-9.601c44.77-76.847 100.219-139.493 169.656-191.682 126.339-94.955 284.925-138.981 442.692-122.898 138.009 14.069 265.906 72.363 368.113 167.78 38.783 36.206 73.709 78.662 102.964 125.16l10.672 16.961 15.875 6.851c150.377 64.89 288.418 133.726 721.375 359.726 62.425 32.585 164.8 85.795 227.5 118.243 62.7 32.449 114.509 59.281 115.131 59.627.742.413-11.573 30.198-35.819 86.63-68.649 159.776-91.057 214.487-115.232 281.343-63.919 176.772-90.782 326.927-88.227 493.157.334 21.725 1.065 47.375 1.625 57 6.453 110.99 23.867 221.889 54.567 347.5 26.378 107.928 29.538 121.308 43.445 184 38.69 174.413 63.078 332.992 71.435 464.5 5.269 82.921 4.526 176.259-1.968 247-5.404 58.864-13.601 116.757-26.478 187-13.814 75.356-32.605 136.761-62.302 203.586-80.158 180.377-217.953 334.301-392.678 438.639-44.281 26.443-98.555 53.668-168 84.273-128.805 56.766-222.015 86.293-361.5 114.515-91.439 18.501-135.548 29.412-186.5 46.133-97.671 32.053-207.109 81.136-283.5 127.151-23.855 14.369-30.735 19.44-52.408 38.632-11.224 9.939-21.202 18.071-22.173 18.071-.971 0-10.688-7.922-21.592-17.605zm30.863-139.186c61.42-38.201 161.671-85.868 250.31-119.017 82.272-30.767 133.71-45.056 243.608-67.669 77.428-15.932 109.372-23.379 150.892-35.177 89.255-25.361 197.712-68.895 300.016-120.423 159.537-80.355 289.103-203.57 372.324-354.073 40.721-73.643 68.404-150.049 83.64-230.851 33.313-176.668 39.514-305.899 22.961-478.5-12.716-132.587-41.238-291.68-85.417-476.435-3.608-15.089-6.753-27.628-6.989-27.863-1.631-1.631-436.363-49.794-556.535-61.657-320.951-31.684-522.852-43.556-740.428-43.538-239.559.02-462.638 14.011-885.572 55.541-150.57 14.785-512 52.119-512.856 52.975-.674.674-8.48 32.986-18.476 76.477-47.517 206.75-72.164 366.364-78.745 509.956-1.557 33.977-.684 121.196 1.497 149.544 6.041 78.522 16.147 142.142 38.056 239.577 24.071 107.055 64.815 203.879 124.313 295.423 72.112 110.951 171.055 204.588 283.712 268.495 57.596 32.672 172.728 82.794 260 113.187 71.068 24.75 112.536 35.928 242.5 65.366 53.073 12.022 85.228 19.906 116.5 28.567 115.067 31.867 251.739 88.865 357 148.883 9.35 5.331 19.475 11.315 22.5 13.297 3.025 1.982 5.585 3.626 5.69 3.654.104.028 4.379-2.555 9.5-5.74zm-232.19-272.842c0-.348 9.675-22.553 21.5-49.344 22.779-51.609 23.79-54.641 19.51-58.514-1.296-1.173-4.348-2.02-8.75-2.429-3.718-.346-7.31-.974-7.982-1.396-1.814-1.139-3.373-7.955-2.648-11.578.348-1.741 1.812-4.096 3.252-5.232 2.518-1.987 3.523-2.049 26.119-1.617 26.115.499 31.603 1.501 36.826 6.724 3.529 3.529 4.278 7.606 2.754 14.995-.627 3.039-11.476 28.806-24.11 57.261l-22.97 51.735-21.75.015c-11.963.01-21.75-.27-21.75-.618zm80.036-.709c.805-.738 6.258-5.238 12.117-10l10.653-8.659 8.847-.017c12.64-.025 21.67-2.168 28.347-6.727 4.733-3.232 6.083-4.938 9.687-12.236 2.303-4.664 4.04-8.627 3.861-8.806-.179-.179-3.188.467-6.687 1.435-9.388 2.599-25.615 2.373-32.861-.459-18.855-7.369-22.706-23.574-10.964-46.142 9.935-19.097 22.578-29.484 41.721-34.278 7.87-1.971 11.389-2.193 35.243-2.23 24.898-.038 26.738.085 30.443 2.029 5.767 3.025 7.853 6.378 8.364 13.44.342 4.734-.119 7.595-2.139 13.264-3.593 10.082-28.871 65.805-32.874 72.467-7.527 12.528-24.718 24.756-38.228 27.191-3.365.607-19.15 1.07-36.464 1.07-25.593 0-30.294-.217-29.066-1.341zm77.844-67.322l5.38-.646 4.349-9.37c6.309-13.594 8.764-22.21 7.372-25.872-1.443-3.796-2.572-4.42-7.981-4.412-6.374.01-12.208 3.01-18.94 9.743-13.549 13.549-14.866 27.392-2.875 30.231 4.407 1.043 6.316 1.092 12.695.326zm50.156 67.322c.805-.738 6.258-5.238 12.117-10l10.653-8.659 8.847-.017c12.64-.025 21.67-2.168 28.347-6.727 4.733-3.232 6.083-4.938 9.687-12.236 2.303-4.664 4.04-8.627 3.861-8.806-.179-.179-3.188.467-6.687 1.435-9.388 2.599-25.615 2.373-32.861-.459-18.855-7.369-22.706-23.574-10.964-46.142 9.935-19.097 22.578-29.484 41.721-34.278 7.87-1.971 11.389-2.193 35.243-2.23 24.898-.038 26.738.085 30.443 2.029 5.767 3.025 7.853 6.378 8.364 13.44.342 4.734-.119 7.595-2.139 13.264-3.593 10.082-28.871 65.805-32.874 72.467-7.527 12.528-24.718 24.756-38.228 27.191-3.365.607-19.15 1.07-36.464 1.07-25.593 0-30.294-.217-29.066-1.341zm77.844-67.322l5.38-.646 4.349-9.37c6.309-13.594 8.764-22.21 7.372-25.872-1.443-3.796-2.572-4.42-7.981-4.412-6.374.01-12.208 3.01-18.94 9.743-13.549 13.549-14.866 27.392-2.875 30.231 4.407 1.043 6.316 1.092 12.695.326zm50.156 67.322c.805-.738 6.258-5.238 12.117-10l10.653-8.659 8.847-.017c12.64-.025 21.67-2.168 28.347-6.727 4.733-3.232 6.083-4.938 9.687-12.236 2.303-4.664 4.04-8.627 3.861-8.806-.179-.179-3.188.467-6.687 1.435-9.388 2.599-25.615 2.373-32.861-.459-18.855-7.369-22.706-23.574-10.964-46.142 9.935-19.097 22.578-29.484 41.721-34.278 7.87-1.971 11.389-2.193 35.243-2.23 24.898-.038 26.738.085 30.443 2.029 5.767 3.025 7.853 6.378 8.364 13.44.342 4.734-.119 7.595-2.139 13.264-3.593 10.082-28.871 65.805-32.874 72.467-7.527 12.528-24.718 24.756-38.228 27.191-3.365.607-19.15 1.07-36.464 1.07-25.593 0-30.294-.217-29.066-1.341zm77.844-67.322l5.38-.646 4.349-9.37c6.309-13.594 8.764-22.21 7.372-25.872-1.443-3.796-2.572-4.42-7.981-4.412-6.374.01-12.208 3.01-18.94 9.743-13.549 13.549-14.866 27.392-2.875 30.231 4.407 1.043 6.316 1.092 12.695.326zm-199.594-205.087c.549-1.851 474.273-1065.727 475.257-1067.32.345-.558-5.753-.93-15.26-.93h-15.835l-70.412 158.75c-38.727 87.313-74.571 167.804-79.653 178.871-48.838 106.333-115.978 209.265-200.82 307.879-48.697 56.602-115.506 123.816-175.064 176.127-125.072 109.853-248.203 184.196-362.5 218.863-53.081 16.1-97.884 23.644-149.5 25.173-83.812 2.482-140.995-23.42-172.828-78.286l-4.713-8.123-28.23 14.187c-53.937 27.106-97.318 43.658-146.73 55.984-79.205 19.758-150.974 21.88-200.332 5.923-61.731-19.956-98.901-66.731-106.716-134.292-1.703-14.725-.699-48.926 1.91-65.072 3.664-22.673 9.674-44.864 19.047-70.335 6.109-16.602-2.058 1.789 188.478-424.459 88.337-197.62 160.613-359.497 160.613-359.727 0-.23-73.688-.558-163.75-.731l-163.75-.313-8.694-2.154c-19.993-4.954-34.561-12.934-47.865-26.219-18.06-18.034-27.891-41.05-29.849-69.885-4.442-65.403 27.021-110.743 84.909-122.357 9.539-1.914 499.591-1.912 524.5.002 104.406 8.023 166.064 34.185 198.428 84.195 13.684 21.146 20.175 44.002 20.163 70.998-.012 25.235-3.763 45.597-13.63 74-2.006 5.775-80.788 183.705-175.072 395.399-94.283 211.695-171.26 385.063-171.06 385.263.2.2 5.945-3.762 12.768-8.805 44.266-32.719 79.754-69.181 94.271-96.857 2.452-4.675 94.301-210.1 204.109-456.5s199.983-448.339 200.389-448.752c.406-.414 89.202-.639 197.323-.5l196.584.253-224.385 503.5c-123.412 276.925-224.666 504.366-225.01 505.426-.741 2.283 6.572-2.699 25.698-17.508 21.324-16.511 33.639-27.429 54.497-48.316 25.736-25.771 40.442-44.375 50.276-63.602 1.829-3.575 90.942-202.925 198.03-443l194.706-436.5 135.957-.764c200.946-1.129 374.323-.438 396.03 1.578 60.236 5.594 100.854 15.355 132.682 31.886l7.755 4.028 12.245-5.559c49.491-22.465 99.399-33.773 166.106-37.635 129.998-7.526 247.76 26.453 301.396 86.966 17.709 19.979 29.332 42.536 35.297 68.5 2.987 13 3.742 39.257 1.556 54.099-1.927 13.081-7.159 32.428-12.04 44.526-6.155 15.253-47.576 106.889-55.09 121.875-38.06 75.912-99.381 142.302-182.137 197.193-20.167 13.377-27.757 17.945-49.469 29.775l-17.626 9.604 2.445 2.964c30.611 37.11 46.567 79.133 49.15 129.447 1.705 33.219-2.007 62.913-12.066 96.517-4.179 13.96-9.956 28.011-34.689 84.372-13.847 31.555-25.011 57.538-24.807 57.742.534.534 16.493-10.49 26.583-18.363 32.165-25.096 55.729-48.653 69.792-69.773 4.319-6.485 41.331-81.754 49.567-100.797 2.004-4.634 2.152-4.75 3.845-3 2.744 2.835 128.09 165.565 128.646 167.013.497 1.297-17.46 40.369-24.959 54.306-34.712 64.515-98.019 125.302-183.754 176.442-72.975 43.528-144.439 74.48-211.417 91.566-46.516 11.866-79.133 16.392-118.584 16.456-24.295.039-34.354-1.002-49.97-5.17-38.964-10.4-69.153-32.081-93.7-67.294-22.528-32.317-33.355-69.718-31.987-110.5.837-24.972 4.507-44.056 12.691-66 2.051-5.5 27.139-62.228 55.75-126.063 28.611-63.834 53.017-119.184 54.236-123 1.462-4.577 2.389-10.564 2.723-17.597.597-12.574-1.258-20.225-7.461-30.768-3.731-6.342-18.908-22.73-23.153-25.003-1.944-1.04-2.317-.855-3.406 1.692-.672 1.573-57.923 130.518-127.223 286.543l-126 283.682-202.867.01c-192.739.01-202.841-.08-202.348-1.743zm385.653-33c.693-1.512 59.303-133.475 130.245-293.25 70.942-159.775 129.364-290.895 129.828-291.378.962-1.001 14.865 7.243 29 17.195 5.218 3.674 14.438 11.663 20.488 17.753 13.247 13.334 20.275 24.09 25.311 38.734 3.087 8.978 3.562 11.703 3.975 22.803.518 13.924-.484 21.645-4.441 34.234-1.411 4.487-26.543 61.709-55.85 127.159-29.307 65.45-54.67 123.15-56.362 128.223-12.766 38.272-12.149 78.698 1.726 113.021 13.586 33.609 39.094 61.429 69.519 75.817 20.623 9.753 39.093 12.962 69.623 12.097 74.576-2.113 152.604-23.905 240.5-67.168 117.075-57.625 196.046-123.424 237.626-197.992 5.881-10.547 18.075-36.415 17.683-37.513-1.002-2.805-86.215-111.978-86.879-111.306-.445.451-5.754 11.203-11.799 23.895s-12.563 25.76-14.486 29.041c-32.206 54.952-125.121 126.445-178.445 137.304-2.915.594-6.625 1.079-8.246 1.079h-2.947l1.866-4.75c1.026-2.612 19.405-44.575 40.842-93.25 45.751-103.881 48.008-109.638 53.697-136.929 3.788-18.17 4.898-29.223 4.829-48.072-.17-46.483-10.917-81.652-35.142-115-7.154-9.848-26.598-29.076-36.397-35.993-6.284-4.436-7.438-5.633-5.993-6.22 40.479-16.441 73.326-33.744 107.719-56.746 80.801-54.038 139.771-118.909 174.118-191.541 8.115-17.161 46.303-102.133 49.66-110.5 7.995-19.924 11.792-38.119 11.792-56.5 0-24.784-5.872-44.925-18.814-64.536-22.074-33.447-61.566-57.807-122.357-75.474-22.081-6.417-51.92-11.769-81.829-14.678-17.666-1.718-79.764-1.734-98.5-.025-66.077 6.027-117.761 20.414-158.205 44.039l-7.205 4.208-7.295-4.891c-29.482-19.765-70.803-31.204-132.795-36.763-25.424-2.28-116.909-2.787-336.5-1.866l-174 .73-188.986 423.627c-103.942 232.995-191.165 428.127-193.829 433.627-19.186 39.618-58.334 82.785-115.494 127.35-25.152 19.61-51.011 35.848-71.387 44.826-10.009 4.41-26.14 9.555-33.506 10.686l-4.201.645 1.365-3.254c.751-1.79 104.73-235.229 231.064-518.754 126.335-283.525 229.925-516.287 230.202-517.25.477-1.661-7.681-1.75-161.37-1.75h-161.873l-195.876 439.75c-107.732 241.862-198.338 444.25-201.347 449.75-17.23 31.494-50.083 66.369-95.766 101.661-27.542 21.277-56.165 37.555-78.5 44.641-10.39 3.296-21.753 5.779-22.596 4.936-.294-.294 83.244-188.568 185.64-418.386 102.396-229.818 187.933-422.346 190.082-427.839 5.11-13.059 9.456-28.361 11.933-42.013 2.313-12.746 2.804-35.404.982-45.34-6.884-37.554-32.913-66.037-76.041-83.214-28.263-11.256-61.767-18.094-108.5-22.146-11.812-1.024-68.455-1.3-266.5-1.3-242.811 0-251.742.065-258.5 1.876-33.73 9.04-51.394 32.637-53.992 72.124-1.174 17.848 1.76 33.409 9.132 48.432 6.245 12.727 15.365 22.012 27.418 27.914 16.955 8.302-.245 7.565 189.942 8.14l169.5.513 6.473 3.5c3.56 1.925 9.073 6.041 12.25 9.146 4.922 4.811 5.777 6.179 5.777 9.249 0 2.632-46.654 107.962-173.119 390.854-95.216 212.988-175.5 393.101-178.41 400.251-15.762 38.731-23.517 69.686-25.302 101-4.426 77.663 29.508 128.175 97.331 144.882 16.737 4.123 27.48 5.116 55 5.084 27.068-.032 37.944-.804 64-4.541 73.433-10.533 149.609-38.652 233.5-86.191 10.175-5.766 18.611-10.391 18.748-10.278.136.113 1.138 3.686 2.226 7.941 11.439 44.725 43.496 75.62 90.811 87.518 18.568 4.669 28.284 5.589 58.216 5.51 37.888-.1 64.81-3.033 101.134-11.016 105.862-23.267 212.019-77.21 327.483-166.408 53.559-41.376 101.497-84.028 158.426-140.957 79.226-79.227 143.296-157.28 196.785-239.731 27.799-42.852 45.344-73.695 68.723-120.812 15.442-31.121 31.8-67.557 133.008-296.256l39.942-90.256 33 .256 33 .256 5.434 3c6.543 3.612 15.582 11.664 17.707 15.774.848 1.64 1.344 3.937 1.101 5.104-.243 1.167-104.909 236.687-232.592 523.378-127.683 286.691-232.15 521.479-232.15 521.75 0 .272 75.528.494 167.839.494h167.839zm-293.629-26.5c.288-.688 101.456-227.825 224.816-504.75l224.292-503.5.041-9.018c.037-8.237-.247-9.603-3.283-15.773-6.233-12.667-21.3-25.721-37.082-32.127l-7.595-3.083-44-.295-44-.295-78.434 176.795c-81.151 182.92-92.695 208.602-103.143 229.452-44.675 89.164-107.004 181.042-179.323 264.342-23.821 27.438-41.786 46.705-73.089 78.385-179.662 181.828-352.471 287.897-507.511 311.508-26.93 4.101-40.06 5.08-67.5 5.034-28.119-.047-36.983-1.024-53.975-5.948-27.698-8.026-45.61-21.652-57.539-43.768-8.993-16.672-12.397-32.052-12.449-56.244l-.037-17.033-15 9.627c-99.747 64.019-195.86 101.592-285.5 111.61-19.403 2.168-62.563 2.449-74.5.484-49.245-8.105-77.041-30.561-87.458-70.656-3.295-12.683-4.36-25.199-3.738-43.925.903-27.18 6.364-52.656 17.877-83.403 5.174-13.816-.384-1.322 189.348-425.672 91.725-205.15 167.4-374.751 168.166-376.892.766-2.141 1.401-7.511 1.411-11.933.016-7.191-.352-8.788-3.478-15.113-7.722-15.624-28.617-31.261-46.062-34.47-4.131-.76-55.496-1.091-169.113-1.091-104.191 0-165.079-.36-168.433-.996-17.366-3.293-27.736-13.886-32.127-32.819-1.495-6.446-1.449-26.402.077-33.685 4.038-19.263 16.262-31.344 34.878-34.469 4.816-.808 75.123-1.015 254.653-.749 261.013.387 255.81.302 288.5 4.692 44.101 5.922 79.475 17.866 99.954 33.75 19.916 15.447 29.05 33.926 29.042 58.756-.01 18.544-3.526 35.95-11.731 58.02-1.636 4.4-87.376 197.473-190.534 429.051-103.158 231.578-188.346 423.728-189.308 427-5.067 17.241.167 28.255 14.264 30.016 16.416 2.051 45.275-4.517 69.362-15.785 33.02-15.448 73.034-44.146 108.319-77.687 28.716-27.297 48.238-51.5 60.66-75.204 2.418-4.615 91.06-202.791 196.981-440.391l192.584-432 131.204-.254c72.162-.14 131.204-.005 131.204.299s-101.748 228.968-226.107 508.143c-246.891 554.249-229.463 513.712-225.1 523.576 3.909 8.837 14.994 11.406 35.93 8.326 50.362-7.409 114.663-47.958 180.852-114.048 32.59-32.541 49.869-55.238 63.601-83.542 3.869-7.975 90.145-200.8 191.725-428.5l184.69-414 110.454-.762c60.75-.419 167.379-.597 236.954-.395 108.067.313 128.977.607 143.5 2.017 41.095 3.989 67.079 9.168 91 18.137 18.27 6.851 29.444 13.654 40.367 24.577l6.944 6.944 10.845-7.324c52.13-35.208 128.423-52.598 220.845-50.337 54.907 1.343 94.814 8.499 138.5 24.836 53.616 20.05 83.932 48.768 90.583 85.808 1.626 9.054 1.805 25.436.367 33.566-1.374 7.771-5.48 21.919-8.625 29.719-4.863 12.063-42.624 95.438-50.822 112.215-29.192 59.738-74.15 112.189-135.613 158.217-57.859 43.329-119.361 73.642-181.074 89.247-8.975 2.269-16.992 4.361-17.817 4.648-.825.287 3 1.996 8.5 3.798 54.211 17.758 91.267 48.775 108.408 90.74 8.737 21.392 12.221 40.9 12.207 68.349-.01 18.834-1.906 33.736-6.616 51.99-5.782 22.412-3.806 17.602-56.278 137.01-19.818 45.1-36.778 84.574-37.689 87.721-4.423 15.277-.412 28.242 9.969 32.22 7.449 2.855 26.278 2.162 40.68-1.497 21.853-5.552 48.463-18.251 73.731-35.187 33.794-22.651 70.466-54.365 92.224-79.757 12.178-14.212 28.259-38.093 31.058-46.124.551-1.582 1.296-2.858 1.655-2.837 1.168.069 48.152 61.824 48.152 63.29 0 2.728-12.264 25.26-20.506 37.672-12.568 18.928-24.07 32.755-42.905 51.579-35.32 35.299-74.979 64.298-130.089 95.122-96.632 54.048-187.532 83.094-269 85.955-32.142 1.129-51.919-3.742-73-17.98-13.25-8.949-29.63-28.687-37.511-45.2-8.613-18.047-11.476-31.683-11.438-54.476.033-19.764 1.442-28.972 6.952-45.435 1.853-5.536 27.064-62.94 56.025-127.565s53.938-121.325 55.505-126c8.864-26.454 9.44-54.647 1.586-77.674-10.857-31.833-36.456-59.659-77.618-84.37-13.772-8.268-36.916-19.474-37.888-18.345-.421.489-60.356 135.099-133.188 299.134l-132.423 298.246h-137.357c-109.5 0-137.251-.249-136.833-1.246zm596.19-673.292c80.245-32.17 148.272-68.705 190-102.044 21.185-16.925 38.597-35.362 50.28-53.235 6.923-10.592 68.296-144.013 71.841-156.179 9.514-32.648 2.265-60.876-19.121-74.456-12.993-8.251-25.357-11.033-49-11.026-18.829.005-27.085 1.142-41.5 5.713-34.649 10.988-62.208 36.337-81.831 75.269-5.093 10.105-145.917 321.473-146.896 324.793-.613 2.08-3.03 2.894 26.227-8.835zm29.907-47.65c27.352-61.814 115.215-254.931 119.254-262.112 14.284-25.4 32.747-43.07 54.339-52.005 12.486-5.166 23.037-7.071 39.5-7.131 25.514-.093 37.154 4.096 42.262 15.208 3.652 7.945 3.597 21.758-.137 34.232-3.85 12.863-63.184 141.124-69.969 151.249-21.276 31.751-65.329 65.287-129.157 98.321-17.685 9.153-51.858 25.471-56.221 26.846l-2.221.7zm77.093-70.312c13.842-8.143 35.594-23.019 46.5-31.799 13.189-10.618 29.161-27.059 35.165-36.197 5.892-8.966 64.389-136.489 66.23-144.379 1.352-5.795 1.333-5.959-.754-6.519-3.986-1.069-16.334-.609-25.26.941-22.633 3.932-41.004 19.805-54.868 47.411-2.831 5.637-77.344 169.899-80.245 176.898-.669 1.615 1.258.689 13.232-6.355zm-2027.5-642.502c655.015-68.082 872.703-85.884 1151.5-94.17 51.881-1.542 214.26-1.532 267.5.017 271.114 7.885 540.196 30.923 1053.859 90.229 43.097 4.976 78.57 8.836 78.829 8.577.259-.258-.882-6.697-2.535-14.308-12.332-56.794-24.94-134.847-31.634-195.838-7.698-70.136-9.932-117.178-9.117-192 .357-32.741 1.208-65.186 1.954-74.5.728-9.075 1.058-16.806.734-17.18-.597-.69-39.913-4.393-274.089-25.817-470.398-43.036-649.4-56.02-856.5-62.129-50.642-1.494-182.204-1.505-232-.02-227.31 6.78-393.743 20.084-995.659 79.593-103.213 10.204-187.988 18.553-188.39 18.553-.402 0-.409 6.751-.016 15.003 1.058 22.219.804 97.114-.418 123.497-4.848 104.656-19.716 215.365-44.081 328.232-2.165 10.028-3.936 18.921-3.936 19.762 0 1.197.816 1.412 3.75.99 2.063-.297 38.175-4.117 80.25-8.491zm424-167.937c-31.767-3.415-51.529-18.654-57.483-44.326-1.513-6.522-19.851-189.759-19.285-192.697.232-1.204 4.75-1.929 22.779-3.657 12.369-1.186 22.627-2.031 22.794-1.878.168.153 4.323 41.51 9.235 91.905 4.912 50.395 9.226 92.858 9.587 94.362 2.296 9.556 9.786 16.459 20.326 18.737 7.137 1.542 25.324.401 87.047-5.462 80.643-7.66 81.487-7.79 91.2-13.951 6.952-4.41 9.982-9.584 10.447-17.84.213-3.787-3.29-46.463-7.984-97.249-4.6-49.775-8.319-90.568-8.264-90.651.319-.48 44.965-4.317 45.382-3.9.705.705 17.145 183.675 17.166 191.051.075 26.122-15.237 46.065-42.448 55.286-17.079 5.788-25.057 6.895-102.34 14.204-65.724 6.215-85.438 7.434-98.16 6.066zm1563-10.079c-48.125-4.295-92.947-8.52-99.605-9.389-43.684-5.699-66.452-21.475-70.47-48.825-.918-6.25-.286-17.026 4.529-77.263 3.078-38.5 6.253-73.375 7.057-77.5 4.219-21.654 18.79-35.084 43.996-40.553 5.97-1.295 12.927-1.75 27.493-1.798 16.697-.055 32.795 1.131 112 8.249 50.875 4.572 92.692 8.495 92.927 8.718.559.529-2.551 35.341-3.216 36.007-.281.281-41.618-3.17-91.861-7.668-101.199-9.06-114.926-9.742-123.936-6.157-6.287 2.502-9.136 5.095-11.308 10.292-1.021 2.445-3.287 25.136-7.218 72.297l-5.729 68.734 2.166 4.459c3.588 7.386 13.196 12.293 28.173 14.389 3.575.5 48.575 4.599 100 9.109s93.685 8.359 93.91 8.554c.451.389-1.693 27.907-2.58 33.117-.524 3.077-.774 3.244-4.692 3.143-2.276-.059-43.514-3.621-91.639-7.916zm-879-44.483c0-6.493-7.774-222.808-8.413-234.108l-.516-9.115 22.037-.729c12.12-.401 22.27-.496 22.554-.212.284.284 1.118 22.418 1.853 49.187.735 26.768 1.482 48.813 1.66 48.989.178.175 22.599-.123 49.824-.663 27.225-.54 69.75-.838 94.5-.662l45 .32.614-32c.338-17.6.675-39.834.75-49.408l.136-17.408 22.127.619c12.17.34 22.312.803 22.538 1.029.341.341-5.689 246.888-6.048 247.303-.064.074-9.725-.103-21.468-.394l-21.351-.529.607-28.606c.334-15.733.875-40.815 1.202-55.738l.594-27.133-30.851-.757c-30.381-.746-155.871.71-156.982 1.821-.314.314.117 25.458.956 55.877.839 30.419 1.447 55.37 1.351 55.447-.096.077-9.738.465-21.425.863l-21.25.722zm-945.643-476.493c38.926-3.85 71.195-7 71.708-7 .577 0 .934-133.156.934-348.357v-348.357l-33.777 17.107c-18.578 9.409-51.872 26.332-73.988 37.607l-40.211 20.5-.012 317.75-.012 317.75h2.292c1.26 0 34.14-3.15 73.066-7zm2228.643-319.288v-317.288l-19.25-10.087c-42.563-22.302-127.651-66.337-128.183-66.337-.534 0-.851 696.929-.317 697.062.176.044 118.479 11.205 146.5 13.821.998.093 1.25-63.945 1.25-317.171zm-1925.127 289.792c37.745-3.573 70.54-6.751 72.877-7.061l4.25-.565v-819.79l-15.75 7.507c-8.662 4.129-41.962 20.409-74 36.178l-58.25 28.672v380.778c0 280.972.294 380.778 1.123 380.778.618 0 32.005-2.924 69.75-6.497zm1617.127-383.449v-382.945l-73.288-36.555c-40.309-20.105-73.609-36.555-74-36.555-.392 0-.712 185.85-.712 413v413l2.25.048c1.894.041 142.787 12.519 145 12.842.412.06.75-172.216.75-382.836zm485.958 319.445c25.801-86.961 60.38-177.333 129.477-338.392 8.587-20.016 15.49-36.511 15.339-36.655-.151-.145-24.799-12.956-54.774-28.469-29.975-15.514-64.625-33.495-77-39.959-12.375-6.464-24.413-12.723-26.75-13.909l-4.25-2.156.071 261.27.071 261.27 5.793-21c3.186-11.55 8.596-30.45 12.023-42zm-2642.393-452.269c-.451-.451-152.378 76.315-153.923 77.775-.472.446 7.487 20.765 17.688 45.153 56.592 135.297 87.919 218.935 112.631 300.706 6.389 21.14 18.392 64.715 21.661 78.635 1.857 7.905 1.882 4.972 2.131-246.915.139-140.203.054-255.112-.187-255.354zm823.436 490.787c20.075-1.617 49.55-3.873 65.5-5.013 15.95-1.14 30.462-2.303 32.25-2.584l3.25-.511v-189.664l-14.238-11.873c-49.118-40.96-90.198-87.21-125.951-141.801l-7.812-11.928v367.5l5.25-.593c2.888-.326 21.675-1.916 41.75-3.533zm1025-179.176v-178.158l-8.608 12.89c-35.252 52.786-76.046 97.64-126.641 139.244l-13.75 11.306v181.836l2.25.452c1.238.248 23.85 1.873 50.25 3.61 39.712 2.613 58.56 3.973 94.75 6.838 1.661.131 1.75-8.959 1.75-178.019zm-690.5 158.673c24.75-.871 50.962-1.84 58.25-2.152l13.25-.568v-22.898c0-12.594-.353-22.898-.785-22.898-1.817 0-32.429-5.225-41.673-7.113-26.662-5.445-62.797-15.654-87.879-24.827-7.609-2.783-14.021-5.06-14.249-5.06-.228 0-.414 19.87-.414 44.156v44.156l14.25-.606c7.838-.333 34.5-1.319 59.25-2.19zm382.5-41.925v-42.41l-9.75 3.53c-39.257 14.214-84.583 25.598-125.12 31.426l-16.13 2.319v43.3l22.25.63c12.238.346 42.275 1.125 66.75 1.731 24.475.606 44.688 1.277 44.917 1.492.229.215 4.167.391 8.75.391h8.333zm-170.5-83.032c112.222-12.092 212.394-54.412 299.5-126.532 16.095-13.326 54.7-51.931 68.025-68.025 64.371-77.747 105.169-166.148 121.378-263 5.989-35.785 7.078-49.947 7.078-92s-1.09-56.215-7.078-92c-16.209-96.852-57.007-185.253-121.378-263-13.326-16.095-51.931-54.7-68.025-68.025-87.439-72.395-187.334-114.492-300.5-126.632-13.348-1.432-25.055-1.823-54.5-1.818-42.164.01-56.568 1.112-92.25 7.078-236.246 39.499-420.856 229.085-454.641 466.898-3.82 26.892-4.609 40.156-4.609 77.5 0 46.386 2.002 68.118 10.039 109 13.472 68.524 42.13 137.606 81.725 197 53.146 79.722 127.395 145.349 212.601 187.913 66.666 33.303 132.995 51.142 213.636 57.459 12.62.989 74.741-.278 89-1.814zm-240.5-54.22c-34.371-4.483-67.052-29.794-83.56-64.715-6.344-13.421-8.804-23.785-8.812-37.123-.01-16.939 4.059-28.127 14.027-38.578 16.28-17.068 42.333-19.582 71.92-6.941 16.311 6.969 26.212 13.791 37.933 26.137 16.92 17.823 25.769 37.334 27.158 59.882 2.189 35.532-16.471 59.446-47.874 61.351-4.011.243-8.867.237-10.792-.014zm25.721-34.782c7.779-4.234 13.136-13.135 13.235-21.991.107-9.586-6.561-27.19-15.029-39.683-5.881-8.676-17.819-20.373-27.101-26.556-18.445-12.286-39.006-13.241-49.928-2.318-6.311 6.31-8.278 12.421-7.679 23.853 1.079 20.625 14.875 42.967 35.212 57.026 13.642 9.431 24.994 13.24 38.082 12.779 6.57-.232 8.948-.791 13.209-3.11zm292.089 32.455c-27.573-3.435-44.457-18.445-45.617-40.556-.741-14.116 5.989-32.878 16.305-45.454 20.388-24.855 59.84-40.946 94.502-38.543 25.441 1.764 40.662 9.985 48.734 26.321 3.552 7.188 3.761 8.135 3.676 16.672-.153 15.408-6.481 29.273-19.774 43.332-24.481 25.891-66.15 42.174-97.825 38.229zm24.864-35.93c42.521-8.775 75.83-46.627 55.008-62.509-5.814-4.435-11.275-5.878-22.182-5.864-28.124.036-64.234 19.834-77.943 42.734-4.032 6.734-4.307 9.31-1.627 15.213 4.785 10.539 24.688 14.978 46.745 10.426zm-167.675-164.763c-16.364-1.694-28.865-5.422-42.49-12.67-29.113-15.487-49.856-43.519-55.941-75.598-2.021-10.652-2.014-29.484.015-40.176 6.208-32.726 27.381-61.2 56.93-76.562 15.839-8.235 32.044-12.311 48.943-12.311 42.443 0 80.104 23.449 98.547 61.358 7.265 14.934 10.032 26.099 10.691 43.142.604 15.619-.832 26.138-5.394 39.5-13.556 39.709-49.462 68.326-91.512 72.935-9.53 1.045-12.783 1.107-19.789.382zm20.566-29.408c25.347-4.66 49.284-24.186 61.373-50.066 6.287-13.459 7.525-19.319 7.465-35.343-.047-12.563-.333-14.821-2.789-22-10.59-30.952-35.605-53.718-65.436-59.552-9.806-1.918-27.814-.714-37.562 2.51-26.685 8.828-48.069 32.155-55.182 60.196-14.165 55.841 37.494 114.299 92.13 104.255zm-378.566-6.509c-30.544-8.152-55.949-38.156-64.554-76.241-6.05-26.776-3.46-52.323 7.57-74.66 12.364-25.037 32.567-38.79 56.984-38.79 11.021 0 19.138 2.124 31.663 8.284 26.55 13.058 45.63 42.844 50.428 78.725 1.75 13.088.638 33.455-2.5 45.781-4.652 18.271-15.059 35.628-27.322 45.57-5.554 4.503-15.619 9.526-22.874 11.415-7.292 1.899-22.122 1.856-29.395-.085zm35.615-29.913c12.244-5.99 21.59-20.022 25.97-38.987 2.251-9.749 1.47-30.903-1.552-42-4.896-17.982-14.038-33.746-25.845-44.565-9.44-8.65-15.697-11.435-25.688-11.435-6.764 0-8.893.439-13.783 2.84-16.475 8.09-26.371 27.631-27.428 54.16-1.18 29.601 9.176 56.201 28.147 72.296 5.281 4.48 13.337 8.882 18.845 10.295 5.512 1.415 15.648.177 21.334-2.604zm679.601 20.561c-30.462-8.26-49.747-35.606-51.868-73.548-1.709-30.582 8.923-59.773 30.429-83.545 12.07-13.342 29.615-24.421 45.223-28.558 7.999-2.12 23.461-2.361 31-.482 19.241 4.794 34.071 17.258 43.528 36.585 26.327 53.805-6.275 130.606-63.028 148.476-10.19 3.209-25.669 3.679-35.285 1.072zm26.807-28.851c18.304-6.407 32.03-18.922 39.87-36.351 5.519-12.268 8.703-30.433 7.652-43.661-2.749-34.622-20.337-52.475-47.54-48.254-13.799 2.141-26.242 8.581-37.081 19.192-5.475 5.36-7.731 8.601-11.827 17-6.581 13.491-9.148 23.427-9.784 37.877-.592 13.425 1.031 22.915 5.539 32.406 5.991 12.611 12.058 18.501 23.027 22.355 5.628 1.978 7.969 2.254 15.62 1.848 5.115-.272 11.384-1.313 14.523-2.411zm-858.883-258.345c-10.893-3.135-19.377-13.977-23.75-30.352-2.805-10.504-2.548-37.156.495-51.5 6-28.275 17.681-52.919 32.281-68.105 24.886-25.884 52.797-18.368 60.767 16.361 2.744 11.956 3.335 22.752 2.046 37.362-3.093 35.048-15.518 67.348-32.133 83.532-5.989 5.833-10.419 8.228-21.175 11.448-8.464 2.534-13.014 2.841-18.53 1.254zm27.629-33.472c9.905-12.934 18.544-32.963 22.808-52.88 2.361-11.026 2.442-32.031.152-39.593-1.938-6.398-5.082-10.908-7.607-10.908-2.684 0-7.989 4.377-12.37 10.206-20.311 27.024-29.081 82.818-16.13 102.618l1.52 2.323 3.179-2.443c1.748-1.344 5.55-5.539 8.447-9.323zm926.224 15.81c-7.215-2.901-18.813-10.174-24.468-15.341-13.556-12.389-25.035-35.76-30.194-61.475-2.476-12.338-2.463-42.836.022-52.874 4.685-18.925 14.407-31.052 28.079-35.024 28.682-8.333 62.349 26.948 74.363 77.927 2.298 9.751 2.62 13.28 2.66 29.097.04 15.907-.223 18.926-2.26 25.965-4.399 15.201-11.964 25.788-21.923 30.681-6.451 3.17-19.684 3.695-26.277 1.044zm5.267-25.94c12.555-13.11 10.803-52.251-3.66-81.75-10.474-21.364-23.902-31.671-31.118-23.885-6.671 7.198-9.355 27.1-6.037 44.759 4.504 23.972 15.913 47.404 28.916 59.39 5.39 4.969 8.226 5.323 11.9 1.486zm-694.759 19.125c-38.503-5.978-67.546-35.001-75.055-75.002-2.507-13.356-1.58-36.606 1.964-49.266 7.437-26.567 23.703-50.278 44.591-65.001 18.577-13.095 37.029-19.151 58.669-19.257 42.911-.211 78.344 30.408 86.967 75.152 3.34 17.331 1.083 43.457-5.299 61.337-11.785 33.015-40.019 59.118-74.837 69.186-6.994 2.022-11.786 2.682-21.5 2.96-6.875.197-13.85.148-15.5-.108zm38.415-26.502c25.308-6.68 46.056-27.306 55.702-55.373 2.402-6.99 2.749-9.514 2.748-20 0-14.19-1.752-22.219-7.451-34.173-11.552-24.232-32.703-38.735-56.166-38.514-21.141.2-40.4 10.164-55.285 28.603-7.588 9.4-12.254 18.006-16.04 29.584-2.531 7.739-2.782 9.844-2.806 23.5-.024 13.69.209 15.698 2.672 23 11.998 35.574 41.948 52.527 76.627 43.373zm374.006 16.575c-36.47-6.604-65.35-27.363-79.473-57.124-4.247-8.95-7.913-21.408-9.507-32.31-1.5-10.256-.651-37.743 1.451-47.02 7.422-32.75 28.394-58.961 56.029-70.026 13.032-5.218 19.668-6.397 35.578-6.322 12.693.06 15.622.402 23.5 2.746 17.807 5.297 32.134 13.518 45.218 25.946 18.459 17.534 31.185 41.836 35.356 67.515 1.377 8.48 1.36 26.602-.035 35.648-4.625 29.999-22.207 56.37-47.151 70.721-18.032 10.375-39.896 14.042-60.966 10.227zm26.434-22.033c19.587-5.053 37.3-21.805 45.906-43.415 6.967-17.495 7.696-40.619 1.827-57.979-4.224-12.497-7.991-18.859-16.415-27.728-21.271-22.393-56.89-31.296-84.674-21.166-20.304 7.404-35.088 24.971-41.12 48.861-4.91 19.448 1.185 46.258 15.122 66.515 10.992 15.976 29.25 29.862 45.498 34.604 7.933 2.315 25.459 2.474 33.856.308zm-229.856-287c-1.65-.235-6.557-.91-10.905-1.499-32.605-4.417-60.092-22.678-67.605-44.916-1.78-5.269-2.119-8.133-1.791-15.127.57-12.137 4.297-19.59 15.202-30.403 12.798-12.689 29.688-20.468 53.151-24.479 39.425-6.74 81.545 4.209 102.517 26.649 9.494 10.158 13.397 20.248 12.732 32.916-.373 7.101-.988 9.436-4.194 15.923-9.397 19.014-33.207 33.926-62.349 39.048-8.779 1.543-31.132 2.692-36.759 1.889zm25.137-20.481c13.627-1.52 23.523-4.254 33.934-9.379 20.514-10.097 24.597-22.101 11.491-33.783-26.239-23.389-95.46-22.505-119.492 1.527-11.606 11.606-7.348 22.305 12.835 32.248 17.519 8.631 38.78 11.89 61.231 9.387z" fill="#000"/></g></svg>