<svg xmlns="http://www.w3.org/2000/svg" width="528mm" height="297mm" viewBox="0 0 528 297"><g><path style="vector-effect:none" fill="#f4e5e5" d="M-.001.045h262.942v147.417h-262.942z"/><path style="vector-effect:none" fill="#fad7da" d="M265.058.045h262.942v147.417h-262.942z"/><path style="vector-effect:none" fill="#d8e5ee" d="M265.058 149.579h262.942v147.417h-262.942z"/><path style="vector-effect:none" fill="#d8e5ee" d="M-.001 149.579h262.942v147.417h-262.942z"/></g><g><path style="vector-effect:none" d="M257.489 15.935a132.748 132.748 0 0 0-26.212 3.936 132.748 132.748 0 0 0-14.411 4.683l.642 1.692a130.996 130.996 0 0 1 14.2-4.677 130.996 130.996 0 0 1 25.865-3.884 130.996 130.996 0 0 1 44.251 5.599l-.869 2.875 11.761-.747-9.378-7.136-1.003 3.319a132.748 132.748 0 0 0-44.847-5.659zm-116.499 83.563l-7.159 9.36 3.324 1.014a132.748 132.748 0 0 0-1.814 71.345 132.748 132.748 0 0 0 4.732 14.545l1.685-.645a130.996 130.996 0 0 1-4.72-14.331 130.996 130.996 0 0 1 1.81-70.397l2.859.872zm246.908 1.706l-1.684.641a130.996 130.996 0 0 1 4.733 14.36l.029.113a130.996 130.996 0 0 1-1.826 70.35l-2.873-.876.719 11.762 7.158-9.361-3.313-1.01a132.748 132.748 0 0 0 1.832-71.296l-.029-.115a132.748 132.748 0 0 0-4.746-14.568zm-161.16 169.619l-11.762.72 9.362 7.158 1.015-3.332a132.748 132.748 0 0 0 71.312 1.821 132.748 132.748 0 0 0 14.789-4.823l-.643-1.675a130.996 130.996 0 0 1-14.577 4.8 130.996 130.996 0 0 1-70.365-1.816z" fill="#767676"/><path d="M380.958 149.75h-115.732v115.727a115.869 115.869 0 0 0 24.454-2.483l.101-.021a115.869 115.869 0 0 0 91.178-113.222z" style="vector-effect:none" fill="#457b9d"/><path style="vector-effect:none" d="M262.773 265.482v-115.732h-115.727a115.869 115.869 0 0 0 2.483 24.454l.022.101a115.869 115.869 0 0 0 113.222 91.178z" fill="#1d3557"/><path style="vector-effect:none" d="M265.226 31.565v115.732h115.727a115.869 115.869 0 0 0-2.483-24.454l-.021-.101a115.869 115.869 0 0 0-113.222-91.178z" fill="#e63946"/><path d="M147.041 147.297h115.732v-115.727a115.869 115.869 0 0 0-24.454 2.483l-.101.022a115.869 115.869 0 0 0-91.178 113.222z" style="vector-effect:none" fill="#c67b7b"/><path style="line-height:16.8344841px;-inkscape-font-specification:Rockwell;text-align:end" d="M194.327 89.007c-.594 0-1.11.198-1.547.594-.437.39-.656 1.101-.656 2.133v1.224h-1.232v1.468h1.232v5.507h-1.232v1.477h4.502v-1.477h-1.608v-5.507h1.451v-1.468h-1.451v-1.224c0-.565.047-.932.14-1.101.093-.175.265-.263.516-.263.367 0 .579.271.638.813l1.477-.227c-.204-1.299-.947-1.949-2.229-1.949zm5.436 0c-.594 0-1.11.198-1.547.594-.437.39-.656 1.101-.656 2.133v1.224h-1.232v1.468h1.232v5.507h-1.232v1.477h4.502v-1.477h-1.608v-5.507h1.451v-1.468h-1.451v-1.224c0-.565.046-.932.14-1.101.093-.175.265-.263.516-.263.367 0 .58.271.638.813l1.477-.227c-.204-1.299-.947-1.949-2.229-1.949zm-16.598.052c-1.853 0-3.356.595-4.51 1.783-1.154 1.189-1.731 2.666-1.731 4.431 0 1.084.247 2.13.743 3.138.495 1.002 1.236 1.786 2.221 2.351.991.559 2.074.839 3.251.839 1.847 0 3.368-.592 4.563-1.775 1.2-1.189 1.8-2.695 1.8-4.519 0-1.789-.589-3.278-1.766-4.466-1.177-1.189-2.701-1.783-4.571-1.783zm49.831.018c-.291 0-.533.099-.726.297-.186.198-.28.431-.28.699 0 .274.096.51.288.708.198.198.437.297.717.297.274 0 .51-.096.708-.288.198-.198.297-.437.297-.717 0-.28-.099-.516-.297-.708-.198-.192-.434-.288-.708-.288zm-49.848 1.6c1.247 0 2.282.449 3.103 1.346.827.892 1.241 1.984 1.241 3.277 0 1.282-.405 2.386-1.215 3.313-.81.921-1.845 1.381-3.103 1.381-1.27 0-2.296-.451-3.077-1.354-.781-.903-1.171-2.022-1.171-3.356 0-1.311.393-2.407 1.18-3.287.787-.88 1.8-1.32 3.042-1.32zm23.46 2.036c-1.16 0-2.188.42-3.085 1.259-.892.839-1.337 1.908-1.337 3.208 0 1.369.457 2.459 1.372 3.269.921.804 2.028 1.206 3.322 1.206.833 0 1.631-.177 2.395-.533.763-.361 1.384-.912 1.862-1.652l-1.469-.647c-.676.932-1.594 1.399-2.753 1.399-.798 0-1.454-.242-1.966-.726-.513-.484-.822-1.116-.927-1.897h7.115c-.035-1.62-.516-2.838-1.442-3.654-.921-.822-1.949-1.232-3.086-1.232zm11.774.105c-.88 0-1.853.385-2.92 1.154v-1.023h-3.147v1.477h1.486v5.507h-1.486v1.477h4.606v-1.477h-1.46v-4.527c.927-.717 1.757-1.075 2.491-1.075.28 0 .516.099.708.297.192.192.288.609.288 1.25v5.533h3.086v-1.477h-1.425v-4.125c0-.723-.056-1.27-.166-1.643-.111-.379-.347-.697-.708-.953-.355-.262-.807-.393-1.354-.393zm7.43 0c-.886 0-1.6.239-2.141.717-.542.472-.813 1.061-.813 1.766 0 .699.247 1.27.743 1.713.501.437 1.335.755 2.5.953.787.128 1.311.268 1.573.42.268.151.403.387.403.708 0 .332-.161.591-.481.778-.321.186-.749.28-1.285.28-.513 0-.959-.128-1.337-.384-.373-.256-.586-.583-.638-.979v-.28h-1.486v2.902h1.486v-.472c.571.408 1.309.612 2.212.612.961 0 1.742-.231 2.342-.691.606-.466.909-1.092.909-1.879 0-.53-.14-.994-.42-1.39-.274-.402-.621-.687-1.04-.856-.42-.175-1.04-.327-1.862-.455-.857-.134-1.416-.259-1.678-.376-.256-.122-.385-.344-.385-.665 0-.315.14-.565.42-.751.286-.192.647-.288 1.084-.288.857 0 1.509.346 1.958 1.04v.516h1.477v-2.806h-1.477v.358c-.577-.326-1.264-.489-2.062-.489zm5.096.131v1.477h1.32v5.507h-1.32v1.477h4.283v-1.477h-1.303v-6.984zm4.283 0v1.477h1.494l2.762 7.124h1.503l2.701-7.124h1.302v-1.477h-4.135v1.477h1.172l-1.827 4.799-1.818-4.799h1.101v-1.477zm-28.538 1.11c.728 0 1.343.242 1.844.726.501.478.81 1.014.927 1.608h-5.341c.105-.688.394-1.247.866-1.678.472-.437 1.04-.656 1.704-.656zm38.844 2.325v1.661h5.244v-1.661zm-28.023 10.074c-.291 0-.533.099-.726.297-.186.198-.28.431-.28.699 0 .274.097.51.289.708.198.198.437.297.717.297.274 0 .51-.097.708-.289.198-.198.297-.437.297-.717 0-.28-.099-.516-.297-.708-.198-.192-.434-.288-.708-.288zm10.663 0c-.291 0-.533.099-.726.297-.186.198-.28.431-.28.699 0 .274.096.51.288.708.198.198.437.297.717.297.274 0 .51-.097.708-.289.198-.198.297-.437.297-.717 0-.28-.099-.516-.297-.708-.198-.192-.434-.288-.708-.288zm-58.466.175v4.623h1.503v-3.103h2.508v9.116h-1.555v1.521h4.973v-1.521h-1.582v-9.116h2.5v3.103h1.503v-4.623zm53.685.874l-1.661 1.521v1.302h-1.101v1.477h1.101v4.196c0 .827.041 1.41.122 1.748.082.338.28.621.594.848.315.221.726.332 1.232.332.425 0 .851-.076 1.276-.227v-1.512c-.297.117-.6.175-.909.175-.291 0-.475-.076-.55-.227-.07-.157-.105-.565-.105-1.224v-4.108h1.564v-1.477h-1.564zm-31.982 2.587c-1.731 0-2.948.658-3.654 1.975l1.591.42c.373-.664.976-.996 1.809-.996.484 0 .874.093 1.172.28.303.186.495.396.577.629.082.233.122.565.122.996v.839c-.74-.478-1.507-.717-2.299-.717-.851 0-1.579.259-2.185.778-.6.519-.9 1.171-.9 1.958 0 .781.282 1.422.847 1.923.571.501 1.242.752 2.011.752.991 0 1.888-.391 2.692-1.171v1.031h2.902v-1.477h-1.425v-3.916c0-.688-.041-1.189-.122-1.503-.076-.315-.227-.606-.455-.874-.227-.274-.574-.495-1.04-.664-.46-.175-1.008-.262-1.643-.262zm44.472 0c-1.241 0-2.293.419-3.155 1.258-.862.833-1.293 1.903-1.293 3.208 0 1.305.425 2.377 1.276 3.216.857.839 1.914 1.259 3.173 1.259 1.224 0 2.27-.414 3.138-1.241.874-.827 1.312-1.905 1.312-3.234s-.437-2.404-1.312-3.226c-.874-.827-1.92-1.241-3.138-1.241zm-49.332.105c-.641 0-1.148.052-1.521.157-.367.105-.716.321-1.049.647-.332.326-.592.737-.778 1.232v-1.906h-3.033v1.477h1.704v5.507h-1.704v1.477h5.21v-1.477h-1.844v-1.862c0-1.154.099-1.952.297-2.395.204-.449.513-.757.927-.926.42-.169 1.052-.254 1.897-.254h.332v-1.678zm16.345 0c-.88 0-1.853.384-2.919 1.153v-1.023h-3.147v1.477h1.486v5.507h-1.486v1.477h4.606v-1.477h-1.459v-4.528c.927-.717 1.757-1.075 2.491-1.075.28 0 .516.099.708.297.192.192.288.609.288 1.25v5.532h3.086v-1.477h-1.425v-4.126c0-.723-.055-1.27-.166-1.643-.111-.379-.347-.696-.708-.952-.355-.262-.807-.393-1.355-.393zm7.43 0c-.886 0-1.6.238-2.141.716-.542.472-.813 1.061-.813 1.766 0 .699.248 1.27.743 1.713.501.437 1.334.755 2.5.953.787.128 1.311.268 1.574.42.268.152.402.387.402.708 0 .332-.16.591-.481.778-.32.186-.749.28-1.285.28-.513 0-.959-.129-1.337-.385-.373-.256-.585-.583-.638-.979v-.28h-1.486v2.902h1.486v-.472c.571.408 1.308.612 2.211.612.961 0 1.742-.23 2.342-.69.606-.466.909-1.093.909-1.879 0-.53-.14-.993-.42-1.39-.274-.402-.621-.688-1.04-.857-.42-.175-1.04-.326-1.861-.454-.857-.134-1.416-.26-1.678-.376-.256-.122-.384-.344-.384-.664 0-.315.14-.565.42-.752.286-.192.647-.288 1.084-.288.857 0 1.509.347 1.958 1.04v.516h1.477v-2.806h-1.477v.359c-.577-.326-1.265-.489-2.063-.489zm37.252 0c-.88 0-1.853.384-2.919 1.153v-1.023h-3.147v1.477h1.486v5.507h-1.486v1.477h4.606v-1.477h-1.46v-4.528c.927-.717 1.757-1.075 2.491-1.075.28 0 .516.099.708.297.192.192.288.609.288 1.25v5.532h3.086v-1.477h-1.425v-4.126c0-.723-.056-1.27-.166-1.643-.111-.379-.347-.696-.708-.952-.355-.262-.807-.393-1.355-.393zm-32.157.131v1.477h1.32v5.507h-1.32v1.477h4.283v-1.477h-1.302v-6.984zm10.663 0v1.477h1.32v5.507h-1.32v1.477h4.283v-1.477h-1.302v-6.984zm9.798 1.381c.746 0 1.381.268 1.906.804.524.536.787 1.218.787 2.045 0 .822-.26 1.503-.778 2.045-.513.536-1.151.804-1.914.804-.752 0-1.39-.265-1.914-.795-.519-.536-.778-1.221-.778-2.054 0-.804.253-1.48.76-2.028s1.151-.822 1.932-.822zm-45.032 3.094c.734 0 1.46.28 2.177.839v.988c-.717.676-1.477 1.014-2.282 1.014-.466 0-.836-.134-1.11-.402-.268-.268-.402-.6-.402-.996 0-.425.155-.772.464-1.04.309-.268.693-.402 1.153-.402z" font-family="Rockwell" letter-spacing="0" word-spacing="0" text-anchor="end" fill="#fff"/><path style="line-height:16.8344841px;-inkscape-font-specification:Rockwell;text-align:end" d="M196.836 182.864c-.594 0-1.11.198-1.547.594-.437.39-.655 1.101-.655 2.133v1.224h-1.232v1.468h1.232v5.507h-1.232v1.477h4.502v-1.477h-1.609v-5.507h1.451v-1.468h-1.451v-1.224c0-.565.047-.932.14-1.101.093-.175.265-.263.516-.263.367 0 .58.271.638.813l1.477-.227c-.204-1.299-.947-1.949-2.229-1.949zm33.25.07c-.291 0-.533.099-.726.297-.186.198-.28.431-.28.699 0 .274.096.51.288.708.198.198.437.297.717.297.274 0 .51-.096.708-.288.198-.198.297-.437.297-.717 0-.28-.099-.516-.297-.708-.198-.192-.434-.288-.708-.288zm-60.267.175v1.521h1.652v9.117h-1.652v1.521h4.423c1.311 0 2.389-.085 3.234-.254.851-.175 1.582-.481 2.194-.918.618-.437 1.116-1.098 1.494-1.984.379-.886.568-1.929.568-3.13 0-1.055-.198-1.993-.594-2.814-.39-.827-.915-1.477-1.573-1.949-.658-.472-1.34-.775-2.045-.909-.699-.134-1.699-.201-2.998-.201zm3.488 1.521h1.04c1.422 0 2.474.114 3.155.341.688.221 1.25.699 1.687 1.433.443.734.665 1.628.665 2.683 0 .886-.134 1.655-.402 2.308-.268.653-.618 1.142-1.049 1.468-.431.32-.961.548-1.591.682-.624.134-1.471.201-2.544.201h-.962zm14.396 1.94c-1.16 0-2.188.42-3.086 1.259-.892.839-1.337 1.908-1.337 3.208 0 1.369.458 2.459 1.373 3.269.921.804 2.028 1.206 3.321 1.206.833 0 1.632-.177 2.395-.533.763-.361 1.384-.912 1.861-1.652l-1.468-.647c-.676.932-1.594 1.398-2.753 1.398-.798 0-1.454-.241-1.967-.725-.513-.484-.822-1.116-.927-1.897h7.115c-.035-1.62-.515-2.838-1.442-3.654-.921-.822-1.949-1.232-3.086-1.232zm15.995 0c-1.16 0-2.188.42-3.086 1.259-.892.839-1.337 1.908-1.337 3.208 0 1.369.458 2.459 1.373 3.269.921.804 2.028 1.206 3.321 1.206.833 0 1.632-.177 2.395-.533.763-.361 1.384-.912 1.861-1.652l-1.468-.647c-.676.932-1.594 1.398-2.753 1.398-.798 0-1.454-.241-1.967-.725-.513-.484-.822-1.116-.927-1.897h7.115c-.035-1.62-.515-2.838-1.442-3.654-.921-.822-1.949-1.232-3.086-1.232zm42.969 0c-1.16 0-2.188.42-3.086 1.259-.892.839-1.337 1.908-1.337 3.208 0 1.369.458 2.459 1.373 3.269.921.804 2.028 1.206 3.321 1.206.833 0 1.632-.177 2.395-.533.763-.361 1.384-.912 1.862-1.652l-1.469-.647c-.676.932-1.594 1.398-2.753 1.398-.798 0-1.454-.241-1.967-.725-.513-.484-.822-1.116-.927-1.897h7.115c-.035-1.62-.516-2.838-1.442-3.654-.921-.822-1.949-1.232-3.086-1.232zm-31.196.105c-.88 0-1.853.385-2.919 1.154v-1.023h-3.147v1.477h1.486v5.507h-1.486v1.477h4.606v-1.477h-1.46v-4.527c.927-.717 1.757-1.075 2.491-1.075.28 0 .516.099.708.297.192.192.289.609.289 1.25v5.533h3.085v-1.477h-1.425v-4.125c0-.723-.055-1.27-.166-1.643-.111-.379-.347-.697-.708-.953-.355-.262-.807-.393-1.355-.393zm7.43 0c-.886 0-1.6.239-2.141.717-.542.472-.813 1.061-.813 1.766 0 .699.248 1.27.743 1.713.501.437 1.334.755 2.5.953.787.128 1.311.268 1.574.419.268.152.402.388.402.708 0 .332-.16.591-.481.778-.32.186-.749.28-1.285.28-.513 0-.958-.128-1.337-.384-.373-.256-.586-.583-.638-.979v-.28h-1.486v2.902h1.486v-.472c.571.408 1.308.612 2.211.612.961 0 1.742-.23 2.342-.69.606-.466.909-1.092.909-1.879 0-.53-.14-.994-.42-1.39-.274-.402-.62-.687-1.04-.856-.42-.175-1.04-.327-1.862-.455-.857-.134-1.416-.259-1.678-.376-.256-.122-.384-.344-.384-.665 0-.315.14-.565.42-.751.286-.192.647-.288 1.084-.288.857 0 1.509.346 1.958 1.04v.516h1.477v-2.806h-1.477v.358c-.577-.326-1.265-.489-2.063-.489zm5.096.131v1.477h1.32v5.507h-1.32v1.477h4.283v-1.477h-1.302v-6.984zm4.283 0v1.477h1.495l2.762 7.124h1.504l2.701-7.124h1.302v-1.477h-4.134v1.477h1.171l-1.827 4.799-1.818-4.799h1.101v-1.477zm-44.534 1.11c.728 0 1.343.242 1.844.726.501.478.81 1.014.927 1.608h-5.34c.105-.688.393-1.247.865-1.678.472-.437 1.04-.656 1.704-.656zm15.995 0c.728 0 1.343.242 1.844.726.501.478.81 1.014.927 1.608h-5.34c.105-.688.393-1.247.865-1.678.472-.437 1.04-.656 1.704-.656zm42.969 0c.728 0 1.343.242 1.844.726.501.478.81 1.014.927 1.608h-5.34c.105-.688.393-1.247.865-1.678.472-.437 1.041-.656 1.705-.656z" font-family="Rockwell" letter-spacing="0" word-spacing="0" text-anchor="end" fill="#fff"/><path style="line-height:16.8344841px;-inkscape-font-specification:Rockwell;text-align:start" d="M295.625 97.697c-.594 0-1.11.198-1.547.594-.437.39-.655 1.101-.655 2.133v1.224h-1.232v1.469h1.232v5.507h-1.232v1.477h4.501v-1.477h-1.608v-5.507h1.451v-1.469h-1.451v-1.224c0-.565.047-.932.14-1.101.093-.175.265-.263.516-.263.367 0 .58.271.638.813l1.477-.227c-.204-1.299-.947-1.949-2.229-1.949zm5.437 0c-.594 0-1.11.198-1.547.594-.437.39-.656 1.101-.656 2.133v1.224h-1.232v1.469h1.232v5.507h-1.232v1.477h4.502v-1.477h-1.608v-5.507h1.451v-1.469h-1.451v-1.224c0-.565.046-.932.14-1.101.093-.175.265-.263.516-.263.367 0 .58.271.638.813l1.477-.227c-.204-1.299-.947-1.949-2.229-1.949zm-16.599.052c-1.853 0-3.356.595-4.51 1.783-1.154 1.189-1.731 2.666-1.731 4.431 0 1.084.247 2.13.743 3.138.495 1.002 1.236 1.786 2.221 2.351.991.559 2.074.839 3.251.839 1.847 0 3.368-.591 4.563-1.774 1.2-1.189 1.8-2.695 1.8-4.519 0-1.789-.588-3.278-1.765-4.466-1.177-1.189-2.701-1.783-4.572-1.783zm49.831.018c-.291 0-.533.099-.726.297-.186.198-.28.431-.28.699 0 .274.096.51.288.708.198.198.437.297.717.297.274 0 .51-.096.708-.288.198-.198.297-.437.297-.717 0-.28-.099-.516-.297-.708-.198-.192-.434-.288-.708-.288zm-49.848 1.6c1.247 0 2.281.449 3.103 1.346.827.892 1.241 1.984 1.241 3.278 0 1.282-.405 2.386-1.215 3.312-.81.921-1.845 1.381-3.103 1.381-1.27 0-2.295-.451-3.076-1.354-.781-.903-1.172-2.022-1.172-3.356 0-1.311.393-2.407 1.18-3.287.787-.88 1.801-1.32 3.042-1.32zm23.46 2.036c-1.16 0-2.188.42-3.085 1.259-.892.839-1.337 1.909-1.337 3.208 0 1.369.457 2.459 1.372 3.269.921.804 2.028 1.207 3.322 1.207.833 0 1.631-.178 2.395-.533.763-.361 1.384-.912 1.862-1.652l-1.469-.647c-.676.932-1.594 1.399-2.753 1.399-.798 0-1.453-.242-1.966-.726-.513-.484-.822-1.116-.927-1.897h7.115c-.035-1.62-.516-2.838-1.442-3.654-.921-.822-1.949-1.232-3.086-1.232zm42.969 0c-1.16 0-2.188.42-3.086 1.259-.892.839-1.337 1.909-1.337 3.208 0 1.369.458 2.459 1.373 3.269.921.804 2.028 1.207 3.321 1.207.833 0 1.631-.178 2.395-.533.763-.361 1.384-.912 1.862-1.652l-1.468-.647c-.676.932-1.594 1.399-2.753 1.399-.798 0-1.454-.242-1.967-.726-.513-.484-.822-1.116-.927-1.897h7.115c-.035-1.62-.516-2.838-1.442-3.654-.921-.822-1.949-1.232-3.085-1.232zm-31.196.105c-.88 0-1.853.385-2.92 1.154v-1.023h-3.147v1.477h1.486v5.507h-1.486v1.477h4.606v-1.477h-1.46v-4.528c.927-.717 1.757-1.075 2.491-1.075.28 0 .516.099.708.297.192.192.288.609.288 1.25v5.533h3.086v-1.477h-1.425v-4.126c0-.723-.055-1.27-.166-1.643-.111-.379-.347-.696-.709-.952-.355-.262-.807-.394-1.354-.394zm7.43 0c-.886 0-1.6.239-2.141.717-.542.472-.813 1.061-.813 1.766 0 .699.248 1.27.743 1.713.501.437 1.334.755 2.5.953.787.128 1.311.268 1.574.42.268.152.402.387.402.708 0 .332-.161.591-.481.778-.32.186-.749.28-1.285.28-.513 0-.959-.128-1.337-.384-.373-.256-.586-.583-.638-.979v-.28h-1.486v2.902h1.486v-.472c.571.408 1.309.612 2.212.612.961 0 1.742-.231 2.342-.691.606-.466.909-1.092.909-1.879 0-.53-.14-.993-.42-1.39-.274-.402-.621-.688-1.04-.857-.42-.175-1.04-.327-1.862-.455-.857-.134-1.416-.259-1.678-.376-.256-.122-.384-.344-.384-.664 0-.315.139-.565.419-.752.286-.192.647-.288 1.084-.288.857 0 1.509.347 1.958 1.04v.516h1.477v-2.806h-1.477v.359c-.577-.326-1.265-.49-2.063-.49zm5.096.131v1.477h1.32v5.507h-1.32v1.477h4.283v-1.477h-1.302v-6.984zm4.283 0v1.477h1.494l2.762 7.124h1.503l2.701-7.124h1.302v-1.477h-4.134v1.477h1.171l-1.827 4.798-1.818-4.798h1.101v-1.477zm-28.538 1.11c.728 0 1.343.242 1.844.726.501.478.81 1.014.927 1.608h-5.341c.105-.688.394-1.247.866-1.678.472-.437 1.04-.656 1.704-.656zm42.969 0c.728 0 1.343.242 1.844.726.501.478.81 1.014.927 1.608h-5.341c.105-.688.394-1.247.866-1.678.472-.437 1.04-.656 1.704-.656z" font-family="Rockwell" letter-spacing="0" word-spacing="0" fill="#fff"/><path style="line-height:16.8344841px;-inkscape-font-specification:Rockwell;text-align:start" d="M305.257 174.173c-.594 0-1.11.199-1.547.595-.437.39-.656 1.101-.656 2.133v1.224h-1.232v1.468h1.232v5.507h-1.232v1.477h4.502v-1.477h-1.608v-5.507h1.451v-1.468h-1.451v-1.224c0-.565.046-.933.14-1.102.093-.175.265-.262.516-.262.367 0 .58.271.638.813l1.477-.227c-.204-1.299-.947-1.949-2.229-1.949zm33.25.07c-.291 0-.533.099-.726.297-.186.198-.28.431-.28.699 0 .274.096.51.288.708.198.198.437.297.717.297.274 0 .51-.096.708-.288.198-.198.297-.437.297-.717 0-.28-.099-.516-.297-.708-.198-.192-.434-.288-.708-.288zm-60.267.175v1.521h1.652v9.117h-1.652v1.521h4.422c1.311 0 2.389-.085 3.234-.254.851-.175 1.582-.481 2.194-.918.618-.437 1.116-1.098 1.494-1.984.379-.886.568-1.929.568-3.13 0-1.055-.199-1.993-.595-2.814-.39-.827-.915-1.477-1.573-1.949-.658-.472-1.34-.775-2.045-.909-.699-.134-1.699-.201-2.998-.201zm3.487 1.521h1.04c1.422 0 2.474.114 3.155.341.688.221 1.25.699 1.687 1.434.443.734.664 1.628.664 2.683 0 .886-.134 1.655-.402 2.308-.268.653-.618 1.142-1.049 1.468-.431.321-.961.548-1.591.682-.623.134-1.471.201-2.544.201h-.962zm14.396 1.94c-1.16 0-2.188.42-3.086 1.259-.892.839-1.337 1.908-1.337 3.208 0 1.369.458 2.459 1.373 3.269.921.804 2.028 1.206 3.321 1.206.833 0 1.632-.178 2.395-.533.763-.361 1.384-.912 1.862-1.652l-1.469-.647c-.676.932-1.594 1.398-2.753 1.398-.798 0-1.454-.242-1.967-.726-.513-.484-.822-1.116-.927-1.897h7.115c-.035-1.62-.516-2.838-1.442-3.654-.921-.822-1.949-1.232-3.086-1.232zm15.995 0c-1.16 0-2.188.42-3.086 1.259-.892.839-1.337 1.908-1.337 3.208 0 1.369.458 2.459 1.373 3.269.921.804 2.028 1.206 3.321 1.206.833 0 1.632-.178 2.395-.533.763-.361 1.384-.912 1.862-1.652l-1.469-.647c-.676.932-1.594 1.398-2.753 1.398-.798 0-1.454-.242-1.967-.726-.513-.484-.822-1.116-.927-1.897h7.115c-.035-1.62-.516-2.838-1.442-3.654-.921-.822-1.949-1.232-3.086-1.232zm11.773.105c-.88 0-1.853.385-2.919 1.154v-1.023h-3.147v1.477h1.486v5.507h-1.486v1.477h4.606v-1.477h-1.46v-4.527c.926-.717 1.757-1.075 2.491-1.075.28 0 .516.099.708.297.192.192.288.609.288 1.25v5.533h3.086v-1.477h-1.425v-4.125c0-.723-.056-1.27-.166-1.643-.111-.379-.347-.697-.708-.953-.355-.262-.807-.393-1.355-.393zm7.429 0c-.886 0-1.6.239-2.141.717-.542.472-.813 1.061-.813 1.766 0 .699.248 1.27.743 1.713.501.437 1.335.754 2.5.952.787.128 1.311.268 1.573.42.268.152.402.387.402.708 0 .332-.16.592-.481.778-.32.186-.749.28-1.285.28-.513 0-.959-.128-1.337-.384-.373-.256-.586-.583-.638-.979v-.28h-1.486v2.902h1.486v-.472c.571.408 1.308.612 2.211.612.961 0 1.742-.23 2.342-.69.606-.466.909-1.093.909-1.879 0-.53-.14-.993-.42-1.39-.274-.402-.62-.687-1.04-.856-.42-.175-1.04-.327-1.862-.455-.857-.134-1.416-.259-1.678-.376-.256-.122-.384-.344-.384-.665 0-.315.14-.565.42-.751.286-.192.647-.289 1.084-.289.857 0 1.509.347 1.958 1.04v.516h1.477v-2.806h-1.477v.358c-.577-.326-1.265-.489-2.063-.489zm5.096.131v1.477h1.32v5.507h-1.32v1.477h4.283v-1.477h-1.302v-6.984zm4.283 0v1.477h1.495l2.762 7.124h1.503l2.701-7.124h1.303v-1.477h-4.135v1.477h1.171l-1.827 4.799-1.818-4.799h1.102v-1.477zm-44.533 1.11c.728 0 1.343.242 1.844.726.501.478.81 1.014.927 1.608h-5.34c.105-.688.393-1.247.865-1.678.472-.437 1.041-.655 1.705-.655zm15.995 0c.728 0 1.343.242 1.844.726.501.478.81 1.014.927 1.608h-5.34c.105-.688.393-1.247.865-1.678.472-.437 1.04-.655 1.705-.655zm38.843 2.325v1.661h5.245v-1.661zm-24.981 10.074c-.291 0-.533.099-.725.297-.186.198-.28.431-.28.699 0 .274.097.51.289.708.198.198.437.297.716.297.274 0 .51-.096.708-.288.198-.198.297-.437.297-.717 0-.28-.099-.516-.297-.708-.198-.192-.435-.288-.708-.288zm10.664 0c-.291 0-.533.099-.726.297-.186.198-.28.431-.28.699 0 .274.096.51.288.708.198.198.437.297.717.297.274 0 .51-.096.708-.288.198-.198.297-.437.297-.717 0-.28-.099-.516-.297-.708-.198-.192-.434-.288-.708-.288zm-58.466.175v4.624h1.503v-3.103h2.508v9.117h-1.555v1.521h4.973v-1.521h-1.582v-9.117h2.5v3.103h1.503v-4.624zm53.685.874l-1.661 1.521v1.302h-1.101v1.477h1.101v4.196c0 .827.041 1.41.122 1.748.082.338.28.621.594.848.315.221.726.332 1.232.332.425 0 .851-.076 1.276-.227v-1.512c-.297.117-.6.175-.909.175-.291 0-.475-.076-.55-.227-.07-.157-.105-.565-.105-1.224v-4.108h1.564v-1.477h-1.564zm-31.982 2.587c-1.731 0-2.948.659-3.654 1.976l1.591.42c.373-.664.976-.996 1.809-.996.484 0 .874.093 1.172.28.303.186.495.396.577.629.082.233.122.565.122.996v.839c-.74-.478-1.507-.717-2.299-.717-.851 0-1.579.259-2.185.778-.6.519-.9 1.171-.9 1.958 0 .781.282 1.422.848 1.923.571.501 1.242.752 2.011.752.991 0 1.888-.391 2.692-1.171v1.031h2.902v-1.477h-1.425v-3.916c0-.688-.041-1.189-.122-1.503-.076-.315-.227-.606-.455-.874-.227-.274-.574-.495-1.04-.664-.46-.175-1.008-.263-1.643-.263zm44.472 0c-1.241 0-2.293.42-3.155 1.259-.862.833-1.293 1.902-1.293 3.208 0 1.305.425 2.378 1.276 3.217.857.839 1.914 1.259 3.173 1.259 1.224 0 2.27-.414 3.138-1.241.874-.827 1.311-1.906 1.311-3.234 0-1.329-.437-2.404-1.311-3.225-.874-.827-1.92-1.241-3.138-1.241zm-49.332.105c-.641 0-1.148.053-1.521.158-.367.105-.716.32-1.049.646-.332.326-.592.737-.778 1.232v-1.905h-3.033v1.477h1.704v5.507h-1.704v1.477h5.209v-1.477h-1.844v-1.861c0-1.154.099-1.952.297-2.395.204-.449.513-.758.927-.927.42-.169 1.052-.253 1.897-.253h.332v-1.678zm16.345 0c-.88 0-1.853.385-2.919 1.154v-1.023h-3.147v1.477h1.486v5.507h-1.486v1.477h4.606v-1.477h-1.459v-4.527c.927-.717 1.757-1.075 2.491-1.075.28 0 .516.1.708.298.192.192.288.609.288 1.25v5.533h3.086v-1.477h-1.425v-4.125c0-.723-.055-1.27-.166-1.643-.111-.379-.347-.697-.708-.953-.355-.262-.807-.393-1.355-.393zm7.43 0c-.886 0-1.6.239-2.141.717-.542.472-.813 1.061-.813 1.766 0 .699.248 1.27.743 1.713.501.437 1.334.755 2.5.953.787.128 1.311.268 1.574.42.268.152.402.387.402.708 0 .332-.161.591-.481.778-.32.186-.749.28-1.285.28-.513 0-.959-.128-1.337-.384-.373-.256-.585-.583-.638-.979v-.28h-1.486v2.902h1.486v-.472c.571.408 1.308.612 2.211.612.961 0 1.742-.231 2.342-.691.606-.466.909-1.092.909-1.879 0-.53-.14-.994-.42-1.39-.274-.402-.621-.687-1.04-.856-.42-.175-1.04-.327-1.862-.455-.857-.134-1.416-.259-1.678-.376-.256-.122-.384-.344-.384-.664 0-.315.14-.565.42-.752.286-.192.647-.288 1.084-.288.857 0 1.509.347 1.958 1.04v.515h1.477v-2.806h-1.477v.358c-.577-.326-1.265-.489-2.063-.489zm37.253 0c-.88 0-1.853.385-2.919 1.154v-1.023h-3.147v1.477h1.486v5.507h-1.486v1.477h4.606v-1.477h-1.46v-4.527c.926-.717 1.757-1.075 2.491-1.075.28 0 .516.1.708.298.192.192.288.609.288 1.25v5.533h3.085v-1.477h-1.425v-4.125c0-.723-.055-1.27-.166-1.643-.111-.379-.347-.697-.708-.953-.355-.262-.807-.393-1.355-.393zm-32.157.131v1.477h1.32v5.507h-1.32v1.477h4.283v-1.477h-1.302v-6.984zm10.663 0v1.477h1.32v5.507h-1.32v1.477h4.283v-1.477h-1.302v-6.984zm9.798 1.381c.746 0 1.381.269 1.905.805s.787 1.217.787 2.045c0 .822-.26 1.503-.778 2.045-.513.536-1.151.804-1.914.804-.752 0-1.39-.265-1.914-.795-.519-.536-.778-1.221-.778-2.054 0-.804.253-1.48.76-2.028s1.151-.822 1.932-.822zm-45.032 3.094c.734 0 1.46.28 2.177.839v.988c-.717.676-1.477 1.014-2.282 1.014-.466 0-.836-.134-1.11-.402-.268-.268-.402-.6-.402-.996 0-.425.154-.772.463-1.04.309-.268.694-.402 1.154-.402z" font-family="Rockwell" letter-spacing="0" word-spacing="0" fill="#fff"/><path style="line-height:13.91549778px;-inkscape-font-specification:Rockwell;text-align:start" d="M66.464 44.35c-1.156 0-2.072.362-2.746 1.086-.674.724-1.011 1.634-1.011 2.73 0 1.045.33 1.952.99 2.719.66.764 1.663 1.145 3.008 1.145 1.124 0 2.028-.314 2.714-.942.685-.628 1.027-1.464 1.027-2.51l-.005-.257h-2.708v.931h1.344c-.078.535-.35.969-.813 1.301-.464.328-.992.492-1.584.492-.756 0-1.404-.261-1.943-.782-.535-.521-.803-1.226-.803-2.114 0-.774.235-1.436.706-1.985.471-.549 1.113-.824 1.926-.824.585 0 1.104.16 1.558.482.457.318.775.682.953 1.092h.947v-2.446h-.947v.829c-.703-.632-1.573-.947-2.612-.947zm-37.385.118v.931h.963v5.582h-.963v.931h6.187v-2.285h-.92v1.354h-3.179v-2.435h2.767v-.931h-2.767v-2.216h3.179v1.311h.92v-2.242h-6.187zm52.071 0v.904h.996v2.05c-.521-.557-1.131-.835-1.83-.835-.66 0-1.253.246-1.777.738-.525.492-.787 1.165-.787 2.018 0 .849.255 1.504.765 1.964.51.46 1.102.69 1.777.69.728 0 1.345-.282 1.852-.845v.76h1.948v-.904h-.932v-6.54h-2.012zm15.356 0v.904h.931v5.636h-.931v.904h2.842v-.904h-.894v-1.702l2.607 2.606h1.333v-.904h-.91l-1.825-1.82 1.943-1.616h.792v-.84h-2.863v.84h.862l-1.938 1.547v-4.651h-1.948zm16.206 0v.931h.92l2.5 6.588h1.033l2.451-6.588h.904v-.931h-2.858v.931h.867l-1.846 4.999-1.895-4.999h.862v-.931h-2.938zm27.756.134c-.164 0-.305.058-.423.176-.114.118-.172.257-.172.418 0 .164.059.305.177.423.118.114.257.171.418.171.164 0 .303-.057.418-.171.118-.114.177-.256.177-.423 0-.164-.059-.303-.177-.418-.114-.118-.253-.176-.418-.176zm1.937 0c-.171 0-.314.061-.428.182-.111.118-.166.255-.166.412 0 .164.057.305.171.423.114.114.255.171.423.171.164 0 .303-.057.418-.171.118-.118.177-.259.177-.423 0-.161-.059-.3-.177-.418-.114-.118-.253-.176-.418-.176zm-95.139.401l-1.017.932v.797h-.674v.904h.674v2.569c0 .507.025.863.075 1.07.05.207.171.38.364.519.193.136.445.203.755.203.26 0 .521-.046.781-.139v-.926c-.182.071-.367.107-.557.107-.178 0-.291-.046-.337-.139-.043-.096-.064-.346-.064-.749v-2.516h.958v-.904h-.958v-1.729zm103.981 0l-1.017.932v.797h-.674v.904h.674v2.569c0 .507.025.863.075 1.07.05.207.172.38.364.519.193.136.444.203.754.203.26 0 .521-.046.781-.139v-.926c-.182.071-.367.107-.557.107-.178 0-.291-.046-.337-.139-.043-.096-.064-.346-.064-.749v-2.516h.958v-.904h-.958v-1.729zm-99.582 1.584c-.71 0-1.34.257-1.889.771-.546.514-.819 1.169-.819 1.964 0 .839.28 1.505.84 2.001.564.492 1.241.738 2.033.738.51 0 .999-.108 1.467-.326.467-.221.847-.559 1.14-1.012l-.899-.396c-.414.571-.976.856-1.686.856-.489 0-.89-.148-1.204-.444-.314-.296-.503-.683-.567-1.161h4.356c-.021-.992-.316-1.738-.883-2.237-.564-.503-1.194-.755-1.889-.755zm22.415 0c-.71 0-1.34.257-1.889.771-.546.514-.819 1.169-.819 1.964 0 .839.28 1.505.84 2.001.564.492 1.242.738 2.034.738.51 0 .999-.108 1.466-.326.467-.221.848-.559 1.14-1.012l-.899-.396c-.414.571-.976.856-1.686.856-.489 0-.89-.148-1.204-.444-.314-.296-.503-.683-.567-1.161h4.357c-.021-.992-.316-1.738-.883-2.237-.564-.503-1.194-.755-1.889-.755zm12.85 0c-1.06 0-1.805.403-2.237 1.21l.974.257c.228-.407.597-.61 1.107-.61.296 0 .535.057.717.172.186.114.304.242.353.385.05.143.075.346.075.61v.514c-.453-.293-.922-.439-1.408-.439-.521 0-.967.159-1.338.476-.368.318-.551.717-.551 1.199 0 .478.173.87.519 1.177.35.307.76.46 1.231.46.607 0 1.156-.239 1.648-.717v.631h1.777v-.904h-.872v-2.398c0-.421-.025-.728-.075-.92-.046-.193-.139-.371-.279-.535-.139-.168-.351-.303-.637-.407-.282-.107-.617-.161-1.006-.161zm18.395 0c-.71 0-1.34.257-1.889.771-.546.514-.819 1.169-.819 1.964 0 .839.28 1.505.84 2.001.564.492 1.242.738 2.034.738.51 0 .999-.108 1.467-.326.467-.221.847-.559 1.14-1.012l-.899-.396c-.414.571-.976.856-1.686.856-.489 0-.89-.148-1.204-.444-.314-.296-.503-.683-.567-1.161h4.357c-.021-.992-.316-1.738-.883-2.237-.564-.503-1.194-.755-1.889-.755zm17.132 0c-.76 0-1.404.257-1.932.771-.528.51-.792 1.165-.792 1.964 0 .799.26 1.456.781 1.969.525.514 1.172.77 1.943.77.749 0 1.39-.253 1.921-.76.535-.507.803-1.167.803-1.98 0-.814-.267-1.472-.803-1.975-.535-.507-1.176-.76-1.921-.76zm19 0c-1.06 0-1.805.403-2.237 1.21l.974.257c.228-.407.598-.61 1.108-.61.296 0 .535.057.717.172.186.114.303.242.353.385.05.143.075.346.075.61v.514c-.453-.293-.922-.439-1.408-.439-.521 0-.967.159-1.338.476-.368.318-.551.717-.551 1.199 0 .478.173.87.519 1.177.35.307.76.46 1.231.46.607 0 1.156-.239 1.648-.717v.631h1.777v-.904h-.873v-2.398c0-.421-.025-.728-.075-.92-.046-.193-.139-.371-.278-.535-.139-.168-.352-.303-.637-.407-.282-.107-.617-.161-1.006-.161zm-101.68.064c-.392 0-.703.032-.931.097-.225.064-.439.196-.642.396s-.362.452-.476.755v-1.167h-1.857v.904h1.043v3.372h-1.043v.904h3.19v-.904h-1.13v-1.14c0-.706.061-1.195.182-1.467.125-.275.314-.464.567-.567.257-.103.644-.155 1.162-.155h.203v-1.028h-.268zm2.698 0c-.542 0-.979.147-1.311.439-.332.289-.498.649-.498 1.081 0 .428.151.778.455 1.049.307.268.817.462 1.531.583.482.078.803.164.963.257.164.093.246.237.246.434 0 .203-.098.362-.295.476-.196.114-.458.171-.787.171-.314 0-.587-.079-.819-.236-.228-.157-.359-.357-.391-.599v-.171h-.91v1.777h.91v-.289c.35.25.801.375 1.354.375.589 0 1.067-.141 1.435-.423.371-.285.557-.669.557-1.151 0-.325-.086-.608-.257-.851-.168-.246-.38-.421-.637-.525-.257-.107-.637-.2-1.14-.278-.525-.082-.867-.159-1.027-.23-.157-.075-.236-.21-.236-.407 0-.193.086-.346.257-.46.175-.118.396-.177.664-.177.525 0 .924.212 1.199.637v.316h.904v-1.718h-.904v.219c-.353-.2-.775-.3-1.263-.3zm16.528 0c-.392 0-.703.032-.931.097-.225.064-.439.196-.642.396s-.362.452-.476.755v-1.167h-1.857v.904h1.044v3.372h-1.044v.904h3.19v-.904h-1.129v-1.14c0-.706.061-1.195.182-1.467.125-.275.314-.464.567-.567.257-.103.644-.155 1.161-.155h.204v-1.028h-.268zm34.949 0c-.539 0-1.135.236-1.787.707v-.626h-1.927v.904h.91v3.372h-.91v.904h2.821v-.904h-.894v-2.772c.567-.439 1.076-.658 1.525-.658.171 0 .316.061.434.182.118.118.176.373.176.765v3.388h1.889v-.904h-.872v-2.526c0-.442-.034-.778-.102-1.007-.068-.232-.212-.426-.433-.583-.218-.161-.495-.241-.83-.241zm35.806 0c-.392 0-.703.032-.931.097-.225.064-.439.196-.642.396s-.362.452-.476.755v-1.167h-1.857v.904h1.044v3.372h-1.044v.904h3.19v-.904h-1.129v-1.14c0-.706.061-1.195.182-1.467.125-.275.314-.464.567-.567.257-.103.644-.155 1.161-.155h.204v-1.028h-.268zm18.861 0c-.392 0-.703.032-.931.097-.225.064-.439.196-.642.396s-.362.452-.476.755v-1.167h-1.857v.904h1.044v3.372h-1.044v.904h3.19v-.904h-1.129v-1.14c0-.706.061-1.195.182-1.467.125-.275.314-.464.567-.567.257-.103.644-.155 1.161-.155h.204v-1.028h-.268zm6.187 0c-.542 0-.98.147-1.312.439-.332.289-.498.649-.498 1.081 0 .428.151.778.455 1.049.307.268.817.462 1.531.583.482.078.803.164.964.257.164.093.246.237.246.434 0 .203-.098.362-.295.476-.196.114-.458.171-.787.171-.314 0-.587-.079-.819-.236-.228-.157-.359-.357-.391-.599v-.171h-.91v1.777h.91v-.289c.35.25.801.375 1.354.375.589 0 1.067-.141 1.434-.423.371-.285.557-.669.557-1.151 0-.325-.086-.608-.257-.851-.168-.246-.38-.421-.637-.525-.257-.107-.637-.2-1.14-.278-.525-.082-.867-.159-1.028-.23-.157-.075-.236-.21-.236-.407 0-.193.086-.346.257-.46.175-.118.396-.177.664-.177.525 0 .924.212 1.199.637v.316h.904v-1.718h-.904v.219c-.353-.2-.774-.3-1.263-.3zm-45.338.081v1.317h1.317v-1.317h-1.317zm20.708 0v.904h.631l1.386 4.362h.958l1.21-3.747 1.188 3.747h.958l1.392-4.362h.744v-.904h-2.339v.904h.712l-.996 3.126-.99-3.126h.567v-.904h-2.505v.904h.567l-.99 3.126-.99-3.126h.68v-.904h-2.183zm-107.482.492c.211.421.369.715.476.883.107.168.296.424.567.77h-8.536v.541h8.536c-.368.385-.719.936-1.054 1.654h.412c.46-.514.856-.902 1.188-1.166.332-.268.674-.487 1.027-.658v-.241c-.307-.132-.633-.332-.979-.599-.346-.271-.756-.666-1.231-1.183h-.407zm28.998.187c.446 0 .822.148 1.129.444.307.293.496.62.567.984h-3.27c.064-.421.241-.763.53-1.027.289-.268.637-.402 1.043-.402zm22.415 0c.446 0 .823.148 1.13.444.307.293.496.62.567.984h-3.271c.064-.421.241-.763.53-1.027.289-.268.637-.402 1.043-.402zm31.246 0c.446 0 .822.148 1.129.444.307.293.496.62.567.984h-3.27c.064-.421.241-.763.53-1.027.289-.268.637-.402 1.044-.402zm-24.882.118c.428 0 .813.146 1.156.439.346.293.519.726.519 1.301 0 .571-.17 1.019-.508 1.344-.335.321-.721.482-1.156.482-.45 0-.837-.154-1.162-.46-.321-.307-.482-.746-.482-1.317 0-.503.157-.926.471-1.268.314-.346.701-.519 1.162-.519zm41.988.048c.457 0 .846.164 1.167.492.321.328.482.746.482 1.253 0 .503-.159.92-.476 1.252-.314.328-.705.492-1.172.492-.46 0-.851-.162-1.172-.487-.318-.328-.476-.748-.476-1.258 0-.492.155-.906.466-1.242.31-.335.705-.503 1.183-.503zm-35.87 1.895c.45 0 .894.171 1.333.514v.605c-.439.414-.904.621-1.397.621-.285 0-.512-.082-.68-.246-.164-.164-.246-.367-.246-.61 0-.26.095-.473.284-.637.189-.164.425-.246.706-.246zm54.527 0c.45 0 .894.171 1.333.514v.605c-.439.414-.904.621-1.397.621-.285 0-.512-.082-.68-.246-.164-.164-.246-.367-.246-.61 0-.26.095-.473.284-.637.189-.164.425-.246.706-.246zm-31.647 1.124v1.316h1.317v-1.316h-1.317zm.412 7.845c-.364 0-.68.121-.947.364-.268.239-.402.674-.402 1.306v.749h-.755v.899h.755v3.372h-.755v.905h2.756v-.905h-.984v-3.372h.888v-.899h-.888v-.749c0-.346.028-.571.085-.674.057-.107.162-.16.316-.16.225 0 .355.166.391.498l.905-.139c-.125-.796-.58-1.194-1.365-1.194zm-71.483.043c-.178 0-.326.061-.444.182-.114.121-.172.264-.172.428 0 .168.059.312.177.433.121.121.267.182.439.182.168 0 .312-.059.434-.177.121-.121.182-.267.182-.439 0-.171-.061-.316-.182-.434s-.266-.177-.434-.177zm-9.478.107v.931h1.011v5.582h-1.011v.932h2.708c.803 0 1.463-.052 1.98-.156.521-.107.968-.294 1.343-.562.378-.268.683-.673.915-1.215.232-.542.348-1.181.348-1.916 0-.646-.122-1.22-.364-1.723-.239-.507-.56-.905-.963-1.194-.403-.289-.82-.474-1.252-.557-.428-.082-1.04-.123-1.836-.123h-2.879zm21.687 0v.904h.931v5.636h-.931v.905h2.842v-.905h-.893v-1.702l2.607 2.607h1.332v-.905h-.91l-1.825-1.82 1.943-1.616h.792v-.84h-2.863v.84h.862l-1.937 1.547v-4.651h-1.948zm23.416 0v2.243h.92v-1.312h2.885l-3.987 5.582v.932h5.534v-2.371h-.921v1.44h-3.259l4.057-5.689v-.824h-5.229zm44.139 0v2.831h.92v-1.9h1.536v5.582h-.953v.932h3.046v-.932h-.969v-5.582h1.531v1.9h.92v-2.831h-6.032zm-59.505.535l-1.017.931v.797h-.674v.904h.674v2.569c0 .507.025.863.075 1.07.05.207.171.38.364.519.193.136.444.203.754.203.26 0 .521-.046.782-.139v-.926c-.182.071-.368.107-.557.107-.178 0-.291-.046-.337-.139-.043-.096-.064-.346-.064-.749v-2.516h.958v-.904h-.958v-1.729zm-27.601.396h.637c.871 0 1.515.07 1.932.209.421.136.765.428 1.033.878.271.45.407.997.407 1.643 0 .542-.082 1.013-.246 1.413-.164.4-.378.699-.642.899-.264.196-.589.335-.974.418-.382.082-.901.123-1.558.123h-.589v-5.582zm16.083 1.188c-.71 0-1.34.257-1.889.771-.546.514-.819 1.169-.819 1.964 0 .839.28 1.505.84 2.001.564.492 1.241.739 2.033.739.51 0 .999-.109 1.467-.327.467-.221.847-.559 1.14-1.012l-.899-.396c-.414.571-.976.856-1.686.856-.489 0-.891-.148-1.205-.444-.314-.296-.503-.683-.567-1.161h4.356c-.021-.992-.316-1.738-.883-2.237-.564-.503-1.194-.755-1.889-.755zm15.917 0c-.71 0-1.34.257-1.889.771-.546.514-.819 1.169-.819 1.964 0 .839.281 1.505.841 2.001.564.492 1.241.739 2.033.739.51 0 .999-.109 1.467-.327.467-.221.847-.559 1.14-1.012l-.899-.396c-.414.571-.976.856-1.686.856-.489 0-.891-.148-1.205-.444-.314-.296-.503-.683-.567-1.161h4.357c-.021-.992-.316-1.738-.883-2.237-.564-.503-1.194-.755-1.889-.755zm35.244 0c-1.06 0-1.805.403-2.237 1.21l.974.257c.228-.407.598-.61 1.108-.61.296 0 .535.057.717.172.186.114.303.243.353.386.05.143.075.346.075.61v.514c-.453-.293-.922-.439-1.408-.439-.521 0-.967.159-1.338.476-.368.318-.551.717-.551 1.199 0 .478.173.871.519 1.178.35.307.76.46 1.231.46.607 0 1.156-.239 1.648-.717v.632h1.777v-.905h-.872v-2.398c0-.421-.025-.728-.075-.92-.046-.193-.139-.371-.278-.535-.139-.168-.352-.303-.637-.407-.282-.107-.617-.161-1.006-.161zm28.516 0c-.76 0-1.404.257-1.932.771-.528.51-.792 1.165-.792 1.964 0 .799.26 1.456.781 1.969.525.514 1.172.771 1.943.771.749 0 1.39-.253 1.922-.76.535-.507.803-1.167.803-1.98 0-.814-.267-1.472-.803-1.975-.535-.507-1.176-.76-1.922-.76zm-82.691.065c-.392 0-.703.032-.931.096-.225.064-.439.196-.642.396s-.362.452-.476.755v-1.167h-1.857v.904h1.043v3.372h-1.043v.905h3.189v-.905h-1.129v-1.14c0-.706.061-1.195.182-1.467.125-.275.314-.463.567-.567.257-.103.644-.156 1.162-.156h.203v-1.027h-.268zm26.269 0c-.392 0-.703.032-.932.096-.225.064-.438.196-.642.396-.203.2-.362.452-.476.755v-1.167h-1.857v.904h1.044v3.372h-1.044v.905h3.19v-.905h-1.13v-1.14c0-.706.061-1.195.182-1.467.125-.275.314-.463.567-.567.257-.103.644-.156 1.162-.156h.203v-1.027h-.267zm18.454 0c-.678 0-1.276.253-1.793.76-.514.503-.77 1.165-.77 1.986 0 .749.233 1.381.701 1.894.467.514 1.072.771 1.814.771.407 0 .781-.091 1.124-.273.343-.182.594-.374.755-.578v.471c0 .343-.018.585-.054.728-.036.146-.116.299-.241.46-.121.161-.307.297-.557.407-.25.114-.521.171-.813.171-.528 0-1.017-.175-1.467-.525l-.664.738c.599.46 1.281.69 2.044.69.507 0 .965-.089 1.376-.267.41-.178.717-.4.92-.664.207-.26.337-.517.391-.77.054-.25.081-.635.081-1.156v-3.859h.931v-.904h-1.948v.738c-.535-.546-1.145-.819-1.83-.819zm24.106 0c-.542 0-.98.146-1.312.439-.332.289-.498.649-.498 1.081 0 .428.151.778.455 1.049.307.268.817.462 1.531.583.482.078.803.164.964.257.164.093.246.237.246.434 0 .203-.098.362-.295.476-.196.114-.458.171-.787.171-.314 0-.587-.079-.819-.236-.228-.157-.359-.357-.391-.599v-.171h-.91v1.777h.91v-.289c.35.25.801.375 1.354.375.589 0 1.067-.141 1.434-.423.371-.285.557-.669.557-1.151 0-.325-.086-.608-.257-.851-.168-.246-.38-.421-.637-.525-.257-.107-.637-.2-1.14-.279-.525-.082-.867-.159-1.028-.23-.157-.075-.235-.21-.235-.407 0-.193.086-.346.257-.46.175-.118.396-.177.664-.177.525 0 .924.213 1.199.637v.316h.904v-1.718h-.904v.22c-.353-.2-.774-.3-1.263-.3zm21.173 0c-.392 0-.703.032-.931.096-.225.064-.439.196-.642.396s-.362.452-.476.755v-1.167h-1.857v.904h1.044v3.372h-1.044v.905h3.19v-.905h-1.129v-1.14c0-.706.061-1.195.182-1.467.125-.275.314-.463.567-.567.257-.103.644-.156 1.161-.156h.204v-1.027h-.268zm-97.008.08v.904h.808v3.372h-.808v.905h2.623v-.905h-.797v-4.276h-1.825zm42.898 0v.904h.733v2.382c0 .535.038.924.113 1.167.075.239.225.435.45.589.228.15.515.225.861.225.546 0 1.117-.226 1.713-.68v.594h1.91v-.905h-.894v-4.276h-1.932v.904h.915v2.804c-.535.45-1.038.674-1.509.674-.157 0-.287-.043-.391-.128-.103-.086-.166-.195-.188-.327-.021-.132-.032-.389-.032-.77v-3.158h-1.75zm21.58 0v.904h.733v2.382c0 .535.037.924.112 1.167.075.239.225.435.45.589.228.15.516.225.862.225.546 0 1.117-.226 1.713-.68v.594h1.911v-.905h-.894v-4.276h-1.932v.904h.915v2.804c-.535.45-1.038.674-1.509.674-.157 0-.287-.043-.391-.128-.103-.086-.166-.195-.187-.327-.021-.132-.032-.389-.032-.77v-3.158h-1.75zm-78.901.492c.211.421.369.715.476.883.107.168.296.424.567.77h-8.536v.541h8.536c-.368.385-.719.937-1.054 1.654h.412c.46-.514.856-.903 1.188-1.167.332-.268.674-.487 1.027-.658v-.241c-.307-.132-.633-.332-.979-.599-.346-.271-.756-.665-1.231-1.183h-.407zm24.47.187c.446 0 .822.148 1.129.444.307.293.496.621.567.985h-3.27c.064-.421.241-.764.53-1.028.289-.268.637-.402 1.044-.402zm15.917 0c.446 0 .822.148 1.129.444.307.293.496.621.567.985h-3.27c.064-.421.241-.764.53-1.028.289-.268.637-.402 1.044-.402zm63.733.166c.457 0 .846.164 1.167.492.321.328.482.746.482 1.253 0 .503-.158.92-.476 1.252-.314.328-.705.492-1.173.492-.46 0-.851-.162-1.172-.487-.318-.328-.476-.748-.476-1.258 0-.492.155-.906.466-1.242.31-.335.705-.503 1.183-.503zm-37.791.027c.442 0 .831.163 1.167.487.335.321.503.747.503 1.279 0 .525-.168.954-.503 1.29-.335.332-.735.498-1.199.498-.475 0-.865-.166-1.172-.498-.303-.332-.455-.76-.455-1.285 0-.542.166-.972.498-1.29.332-.321.719-.482 1.161-.482zm8.933 1.868c.45 0 .894.171 1.333.514v.605c-.439.414-.904.621-1.397.621-.285 0-.512-.082-.68-.246-.164-.164-.246-.367-.246-.61 0-.26.095-.473.284-.637.189-.164.425-.246.706-.246z" font-family="Rockwell" letter-spacing="0" word-spacing="0" fill="#6d6d6d"/><path style="line-height:13.91549778px;-inkscape-font-specification:Rockwell;text-align:start" d="M28.999 231.51v.931h.937v5.583h-.937v.931h3.024v-.931h-.963v-1.916h.514c.646 0 1.127-.027 1.445-.08.321-.057.609-.166.862-.327.257-.161.471-.409.642-.744.175-.339.262-.721.262-1.145 0-.532-.132-.992-.396-1.381-.26-.392-.585-.644-.974-.755-.389-.111-.974-.166-1.755-.166h-2.66zm67.914 0v.931h1.011v5.583h-1.011v.931h2.708c.803 0 1.463-.052 1.98-.155.521-.107.969-.295 1.344-.562.378-.268.683-.673.915-1.215.232-.542.348-1.181.348-1.916 0-.646-.121-1.22-.364-1.723-.239-.507-.56-.904-.963-1.193-.403-.289-.821-.474-1.253-.557-.428-.082-1.04-.124-1.836-.124h-2.879zm24.748 0v.905h.931v5.636h-.931v.904h2.842v-.904h-.894v-1.702l2.607 2.607h1.333v-.904h-.91l-1.825-1.82 1.943-1.616h.792v-.84h-2.863v.84h.862l-1.938 1.547v-4.651h-1.948zm-39.799.535l-1.017.931v.797h-.674v.905h.674v2.569c0 .507.025.863.075 1.07.05.207.171.38.364.519.193.136.444.204.754.204.26 0 .521-.047.782-.14v-.926c-.182.071-.368.107-.557.107-.178 0-.291-.047-.337-.14-.043-.096-.064-.346-.064-.749v-2.516h.958v-.905h-.958v-1.729zm-50.803.396h.696c.517 0 .887.031 1.108.091.221.061.407.201.557.423.15.221.225.499.225.835 0 .528-.141.897-.423 1.108-.282.207-.788.311-1.52.311h-.642v-2.767zm67.988 0h.637c.871 0 1.514.07 1.932.209.421.136.765.428 1.033.878.271.45.407.997.407 1.643 0 .542-.082 1.013-.246 1.413-.164.4-.378.699-.642.899-.264.196-.589.335-.974.418-.382.082-.901.123-1.558.123h-.589v-5.583zm-61.18 1.189c-.71 0-1.34.257-1.889.77-.546.514-.819 1.169-.819 1.964 0 .839.28 1.506.84 2.002.564.492 1.242.738 2.034.738.51 0 .999-.109 1.467-.327.467-.221.847-.558 1.14-1.011l-.899-.396c-.414.571-.976.856-1.686.856-.489 0-.89-.148-1.204-.444-.314-.296-.503-.684-.567-1.162h4.357c-.021-.992-.316-1.738-.883-2.237-.564-.503-1.194-.754-1.889-.754zm20.076 0c-1.06 0-1.805.403-2.237 1.209l.974.257c.228-.407.598-.61 1.108-.61.296 0 .535.057.717.171.186.114.303.243.353.386.05.143.075.346.075.61v.514c-.453-.293-.922-.439-1.408-.439-.521 0-.967.158-1.338.476-.368.318-.551.717-.551 1.199 0 .478.173.871.519 1.178.35.307.76.46 1.231.46.607 0 1.156-.239 1.648-.717v.631h1.777v-.904h-.873v-2.398c0-.421-.025-.728-.075-.921-.046-.193-.139-.371-.278-.535-.139-.168-.352-.304-.637-.407-.282-.107-.617-.16-1.006-.16zm12.412 0c-.71 0-1.34.257-1.889.77-.546.514-.819 1.169-.819 1.964 0 .839.28 1.506.84 2.002.564.492 1.242.738 2.034.738.51 0 .999-.109 1.467-.327.467-.221.847-.558 1.14-1.011l-.899-.396c-.414.571-.976.856-1.686.856-.489 0-.891-.148-1.205-.444-.314-.296-.503-.684-.567-1.162h4.357c-.021-.992-.316-1.738-.883-2.237-.564-.503-1.194-.754-1.889-.754zm15.907 0c-.71 0-1.34.257-1.889.77-.546.514-.819 1.169-.819 1.964 0 .839.28 1.506.84 2.002.564.492 1.241.738 2.033.738.51 0 .999-.109 1.467-.327.467-.221.847-.558 1.14-1.011l-.899-.396c-.414.571-.976.856-1.686.856-.489 0-.891-.148-1.205-.444-.314-.296-.503-.684-.567-1.162h4.357c-.021-.992-.316-1.738-.883-2.237-.564-.503-1.194-.754-1.889-.754zm32.348 0c-.671 0-1.263.255-1.777.765-.514.507-.77 1.151-.77 1.932 0 .731.235 1.377.706 1.937s1.117.84 1.937.84c1.16 0 1.972-.515 2.436-1.547l-.84-.396c-.321.678-.839 1.017-1.552 1.017-.514 0-.906-.185-1.177-.557-.271-.375-.407-.806-.407-1.295 0-.525.142-.948.428-1.269.285-.325.656-.487 1.113-.487.343 0 .642.1.899.3.26.2.414.487.46.861h.91v-1.959h-.91v.364c-.396-.339-.881-.508-1.456-.508zm-73.394.064c-.392 0-.703.032-.931.096-.225.064-.439.197-.642.396-.203.2-.362.451-.476.754v-1.167h-1.857v.905h1.043v3.372h-1.043v.904h3.189v-.904h-1.129v-1.14c0-.706.061-1.195.182-1.467.125-.275.314-.464.567-.567.257-.103.644-.155 1.161-.155h.204v-1.028h-.268zm4.469 0c-.589 0-1.19.244-1.804.733v-.653h-1.878v.905h.861v3.372h-.926v.904h2.853v-.904h-.91v-2.778c.607-.446 1.102-.669 1.488-.669.235 0 .401.077.498.23.1.15.15.394.15.733v3.388h1.906v-.904h-.889v-2.778c.553-.446 1.047-.669 1.483-.669.153 0 .284.041.391.123.111.078.179.18.204.305.029.121.043.332.043.631v3.292h1.921v-.904h-.905v-2.569c0-.442-.037-.776-.112-1-.075-.228-.221-.416-.439-.562-.214-.15-.489-.225-.824-.225-.582 0-1.21.269-1.884.808-.225-.539-.633-.808-1.226-.808zm15.281 0c-.539 0-1.135.235-1.788.706v-.626h-1.926v.905h.91v3.372h-.91v.904h2.821v-.904h-.894v-2.772c.567-.439 1.076-.658 1.525-.658.171 0 .316.061.434.182.118.118.177.373.177.765v3.388h1.889v-.904h-.872v-2.526c0-.442-.034-.778-.102-1.006-.068-.232-.212-.426-.434-.583-.218-.161-.494-.241-.829-.241zm12.588 0c-.539 0-1.135.235-1.787.706v-.626h-1.927v.905h.91v3.372h-.91v.904h2.821v-.904h-.894v-2.772c.567-.439 1.076-.658 1.525-.658.171 0 .316.061.434.182.118.118.177.373.177.765v3.388h1.889v-.904h-.873v-2.526c0-.442-.033-.778-.101-1.006-.068-.232-.212-.426-.434-.583-.218-.161-.495-.241-.83-.241zm16.046 0c-.392 0-.703.032-.931.096-.225.064-.439.197-.642.396-.203.2-.362.451-.476.754v-1.167h-1.857v.905h1.044v3.372h-1.044v.904h3.19v-.904h-1.13v-1.14c0-.706.061-1.195.182-1.467.125-.275.314-.464.567-.567.257-.103.644-.155 1.162-.155h.204v-1.028h-.268zm15.307 0c-.392 0-.703.032-.931.096-.225.064-.439.197-.642.396-.203.2-.362.451-.476.754v-1.167h-1.857v.905h1.044v3.372h-1.044v.904h3.19v-.904h-1.129v-1.14c0-.706.061-1.195.182-1.467.125-.275.314-.464.567-.567.257-.103.644-.155 1.161-.155h.204v-1.028h-.268zm.888.08v.905h.733v2.382c0 .535.037.924.112 1.166.075.239.225.436.45.589.228.15.516.225.862.225.546 0 1.117-.227 1.713-.68v.594h1.911v-.904h-.894v-4.277h-1.932v.905h.915v2.804c-.535.45-1.038.674-1.509.674-.157 0-.287-.043-.391-.129-.103-.086-.166-.195-.187-.327-.021-.132-.032-.389-.032-.77v-3.158h-1.75zm-87.101.492c.211.421.369.715.476.883.107.168.296.425.567.771h-8.536v.541h8.536c-.368.385-.719.936-1.054 1.654h.412c.46-.514.856-.903 1.188-1.167.332-.268.674-.487 1.027-.658v-.241c-.307-.132-.633-.332-.979-.599-.346-.271-.756-.665-1.231-1.183h-.407zm15.2.188c.446 0 .822.148 1.129.444.307.293.496.621.567.985h-3.27c.064-.421.241-.764.53-1.028.289-.268.637-.401 1.044-.401zm32.487 0c.446 0 .822.148 1.129.444.307.293.496.621.567.985h-3.27c.064-.421.241-.764.53-1.028.289-.268.637-.401 1.044-.401zm15.907 0c.446 0 .822.148 1.129.444.307.293.496.621.567.985h-3.27c.064-.421.241-.764.53-1.028.289-.268.637-.401 1.044-.401zm-28.688 2.06c.45 0 .894.171 1.333.514v.605c-.439.414-.904.621-1.397.621-.285 0-.512-.082-.68-.246-.164-.164-.246-.368-.246-.61 0-.26.095-.473.284-.637.189-.164.425-.246.706-.246zm-28.623 9.119v.931h.931v5.582h-.931v.931h2.911v-.931h-.856v-5.582h.958v-.931h-3.013zm3.629 0v.931h.851l-2.387 2.585 2.301 2.997h-.803v.931h3.024v-.931h-.797l-2.355-2.997 2.291-2.585h.792v-.931h-2.917zm53.966 0v.931h.915v5.582h-.915v.931h2.532c.564 0 1.008-.029 1.333-.086.328-.057.63-.168.904-.332.275-.164.494-.396.658-.696.168-.3.252-.633.252-1.001 0-.425-.113-.801-.337-1.129-.221-.332-.538-.569-.952-.712.3-.143.526-.353.68-.631.157-.278.236-.59.236-.936 0-.45-.13-.84-.391-1.172-.26-.335-.562-.544-.905-.626-.339-.082-.849-.123-1.531-.123h-2.478zm12.198 0v.904h.92v5.636h-.92v.904h2.73v-.904h-.792v-6.54h-1.937zm3.211 0v.904h.92v5.636h-.92v.904h2.73v-.904h-.792v-6.54h-1.937zm-64.177.133c-.164 0-.305.059-.423.177-.114.118-.171.257-.171.418 0 .164.059.305.177.423.118.114.257.172.418.172.164 0 .303-.057.418-.172.118-.114.176-.255.176-.423 0-.164-.058-.303-.176-.418-.114-.118-.253-.177-.418-.177zm1.937 0c-.171 0-.314.061-.428.182-.111.118-.166.255-.166.412 0 .164.057.305.172.423.114.114.255.172.423.172.164 0 .303-.057.418-.172.118-.118.177-.259.177-.423 0-.161-.059-.3-.177-.418-.114-.118-.253-.177-.418-.177zm48.87.798h.701c.96 0 1.44.353 1.44 1.059 0 .364-.107.641-.321.83-.211.186-.583.278-1.118.278h-.701v-2.167zm-49.839 1.188c-.76 0-1.404.257-1.932.77-.528.51-.792 1.165-.792 1.964 0 .799.26 1.456.781 1.97.525.514 1.172.77 1.943.77.749 0 1.39-.253 1.921-.76.535-.507.803-1.167.803-1.98 0-.814-.268-1.471-.803-1.975-.535-.507-1.176-.76-1.921-.76zm17.86 0c-.71 0-1.34.257-1.889.77-.546.514-.819 1.169-.819 1.964 0 .839.28 1.506.84 2.002.564.492 1.242.738 2.034.738.51 0 .999-.109 1.467-.327.467-.221.847-.558 1.14-1.011l-.899-.396c-.414.571-.976.857-1.686.857-.489 0-.89-.148-1.204-.444-.314-.296-.503-.683-.567-1.161h4.357c-.021-.992-.316-1.738-.883-2.238-.564-.503-1.194-.754-1.889-.754zm19.219 0c-.76 0-1.404.257-1.932.77-.528.51-.792 1.165-.792 1.964 0 .799.26 1.456.781 1.97.525.514 1.172.77 1.943.77.749 0 1.39-.253 1.921-.76.535-.507.803-1.167.803-1.98 0-.814-.267-1.471-.803-1.975-.535-.507-1.176-.76-1.921-.76zm19.685 0c-1.06 0-1.805.403-2.237 1.21l.974.257c.228-.407.598-.61 1.108-.61.296 0 .535.057.717.171.186.114.304.243.353.386.05.143.075.346.075.61v.514c-.453-.293-.922-.439-1.408-.439-.521 0-.967.159-1.338.476-.368.318-.551.717-.551 1.199 0 .478.173.87.519 1.177.35.307.76.46 1.231.46.607 0 1.156-.239 1.648-.717v.631h1.777v-.904h-.872v-2.398c0-.421-.025-.728-.075-.921-.046-.193-.139-.371-.278-.535-.139-.168-.352-.303-.637-.407-.282-.107-.617-.161-1.006-.161zm-49.465.064c-.392 0-.703.032-.931.097-.225.064-.439.196-.642.396s-.362.451-.476.754v-1.166h-1.857v.904h1.043v3.372h-1.043v.904h3.189v-.904h-1.129v-1.14c0-.706.061-1.195.182-1.467.125-.275.314-.464.567-.567.257-.103.644-.155 1.162-.155h.203v-1.028h-.268zm4.485 0c-.721 0-1.334.298-1.841.894v-.813h-1.889v.904h.872v5.695h-.947v.904h2.97v-.904h-1.006v-2.061c.528.528 1.134.792 1.82.792.66 0 1.249-.242 1.766-.728.517-.485.776-1.147.776-1.986 0-.799-.239-1.449-.717-1.948-.475-.5-1.076-.749-1.804-.749zm13.413 0c-.392 0-.703.032-.931.097-.225.064-.439.196-.642.396s-.362.451-.476.754v-1.166h-1.857v.904h1.043v3.372h-1.043v.904h3.189v-.904h-1.129v-1.14c0-.706.061-1.195.182-1.467.125-.275.314-.464.567-.567.257-.103.644-.155 1.161-.155h.204v-1.028h-.268zm19.182 0c-.392 0-.703.032-.931.097-.225.064-.439.196-.642.396s-.362.451-.476.754v-1.166h-1.857v.904h1.044v3.372h-1.044v.904h3.19v-.904h-1.129v-1.14c0-.706.061-1.195.182-1.467.125-.275.314-.464.567-.567.257-.103.644-.155 1.161-.155h.204v-1.028h-.268zm-16.03.081v.904h.916l1.691 4.362h.921l1.654-4.362h.797v-.904h-2.532v.904h.717l-1.118 2.938-1.114-2.938h.674v-.904h-2.607zm-44.428.492c.211.421.369.715.476.883.107.168.296.425.567.771h-8.536v.541h8.536c-.368.385-.719.936-1.054 1.654h.412c.46-.514.856-.903 1.188-1.167.332-.268.674-.487 1.027-.658v-.241c-.307-.132-.633-.332-.979-.599-.346-.271-.756-.665-1.231-1.183h-.407zm33.964.188c.446 0 .823.148 1.13.444.307.293.496.62.567.984h-3.27c.064-.421.241-.763.53-1.027.289-.268.637-.402 1.043-.402zm-6.262.139c.421 0 .796.155 1.124.466.332.31.498.742.498 1.296 0 .567-.159 1.013-.476 1.338-.314.325-.714.487-1.199.487-.346 0-.647-.087-.904-.262-.257-.178-.444-.398-.562-.658-.118-.26-.176-.534-.176-.819 0-.557.169-1.003.508-1.338.343-.339.739-.508 1.189-.508zm-11.625.027c.457 0 .846.164 1.167.492.321.328.482.745.482 1.252 0 .503-.159.921-.476 1.253-.314.328-.705.492-1.172.492-.46 0-.851-.163-1.172-.487-.318-.328-.476-.748-.476-1.258 0-.492.155-.906.466-1.241.31-.335.705-.503 1.183-.503zm37.08 0c.457 0 .846.164 1.167.492.321.328.482.745.482 1.252 0 .503-.159.921-.476 1.253-.314.328-.705.492-1.172.492-.46 0-.851-.163-1.172-.487-.318-.328-.476-.748-.476-1.258 0-.492.155-.906.466-1.241.31-.335.705-.503 1.183-.503zm12.759.91h.642c.446 0 .79.033 1.033.101.246.064.446.197.599.396.157.196.235.441.235.733 0 .321-.082.585-.246.792-.161.203-.369.334-.626.391-.257.054-.662.08-1.215.08h-.423v-2.494zm6.583.984c.45 0 .894.172 1.333.514v.605c-.439.414-.904.621-1.397.621-.285 0-.512-.082-.68-.246-.164-.164-.246-.368-.246-.61 0-.26.095-.473.284-.637.189-.164.425-.246.706-.246z" font-family="Rockwell" letter-spacing="0" word-spacing="0" fill="#6d6d6d"/><path style="line-height:13.91549778px;-inkscape-font-specification:Rockwell;text-align:end" d="M398.721 38.492v.931h.936v5.583h-.936v.931h3.024v-.931h-.963v-1.916h.514c.646 0 1.128-.027 1.445-.08.321-.057.608-.166.861-.327.257-.161.471-.409.642-.744.175-.339.263-.721.263-1.145 0-.532-.132-.992-.396-1.381-.26-.392-.585-.644-.974-.755-.389-.111-.974-.166-1.755-.166h-2.66zm63.439 0v.931h.915v5.583h-.915v.931h2.532c.564 0 1.008-.029 1.333-.086.328-.057.63-.168.905-.332s.494-.396.658-.696c.168-.3.252-.633.252-1.001 0-.425-.112-.801-.337-1.13-.221-.332-.539-.569-.953-.712.3-.143.527-.353.68-.631.157-.278.235-.591.235-.937 0-.45-.13-.84-.391-1.172-.26-.335-.562-.544-.904-.626-.339-.082-.849-.123-1.531-.123h-2.478zm-10.576.535l-1.017.931v.797h-.674v.905h.674v2.569c0 .507.025.863.075 1.07.05.207.171.38.364.519.193.136.445.204.755.204.26 0 .521-.047.781-.14v-.926c-.182.071-.367.107-.557.107-.178 0-.291-.047-.337-.14-.043-.096-.064-.346-.064-.749v-2.515h.958v-.905h-.958v-1.729zm-50.803.396h.696c.517 0 .887.03 1.108.091.221.061.407.202.557.423.15.221.225.499.225.835 0 .528-.141.897-.423 1.108-.282.207-.788.311-1.52.311h-.642v-2.767zm63.417 0h.701c.96 0 1.44.353 1.44 1.06 0 .364-.107.64-.321.829-.211.186-.584.279-1.119.279h-.701v-2.168zm-56.609 1.189c-.71 0-1.34.257-1.889.77-.546.514-.819 1.169-.819 1.964 0 .839.28 1.506.84 2.002.564.492 1.241.738 2.033.738.51 0 .999-.109 1.467-.327.467-.221.847-.558 1.14-1.011l-.899-.396c-.414.571-.976.856-1.686.856-.489 0-.891-.148-1.205-.444-.314-.296-.503-.684-.567-1.162h4.356c-.021-.992-.316-1.738-.883-2.237-.564-.503-1.194-.754-1.889-.754zm20.076 0c-1.06 0-1.805.403-2.237 1.209l.974.257c.228-.407.598-.61 1.108-.61.296 0 .535.057.717.171.186.114.304.243.353.386.05.143.074.346.074.61v.514c-.453-.293-.922-.439-1.407-.439-.521 0-.967.158-1.338.476-.368.318-.551.717-.551 1.199 0 .478.173.871.519 1.178.35.307.76.46 1.231.46.607 0 1.156-.239 1.648-.717v.631h1.777v-.905h-.872v-2.397c0-.421-.025-.728-.075-.921-.046-.193-.139-.371-.279-.535-.139-.168-.351-.303-.637-.407-.282-.107-.618-.16-1.007-.16zm12.412 0c-.71 0-1.34.257-1.889.77-.546.514-.819 1.169-.819 1.964 0 .839.28 1.506.84 2.002.564.492 1.241.738 2.033.738.51 0 .999-.109 1.467-.327.467-.221.847-.558 1.14-1.011l-.899-.396c-.414.571-.976.856-1.686.856-.489 0-.89-.148-1.204-.444-.314-.296-.503-.684-.567-1.162h4.356c-.021-.992-.316-1.738-.883-2.237-.564-.503-1.194-.754-1.889-.754zm15.907 0c-.71 0-1.34.257-1.889.77-.546.514-.819 1.169-.819 1.964 0 .839.28 1.506.84 2.002.564.492 1.242.738 2.034.738.51 0 .999-.109 1.466-.327.467-.221.847-.558 1.14-1.011l-.899-.396c-.414.571-.976.856-1.686.856-.489 0-.89-.148-1.204-.444-.314-.296-.503-.684-.567-1.162h4.356c-.021-.992-.316-1.738-.883-2.237-.564-.503-1.194-.754-1.889-.754zm15.436 0c-.71 0-1.34.257-1.889.77-.546.514-.819 1.169-.819 1.964 0 .839.28 1.506.84 2.002.564.492 1.242.738 2.034.738.51 0 .999-.109 1.467-.327.467-.221.847-.558 1.14-1.011l-.899-.396c-.414.571-.976.856-1.686.856-.489 0-.891-.148-1.205-.444-.314-.296-.503-.684-.567-1.162h4.357c-.021-.992-.316-1.738-.883-2.237-.564-.503-1.194-.754-1.889-.754zm14.269 0c-.71 0-1.34.257-1.889.77-.546.514-.819 1.169-.819 1.964 0 .839.28 1.506.84 2.002.564.492 1.242.738 2.034.738.51 0 .999-.109 1.467-.327.467-.221.847-.558 1.14-1.011l-.899-.396c-.414.571-.976.856-1.686.856-.489 0-.89-.148-1.204-.444-.314-.296-.503-.684-.567-1.162h4.357c-.021-.992-.316-1.738-.883-2.237-.564-.503-1.194-.754-1.889-.754zm-70.75.064c-.392 0-.703.032-.931.096-.225.064-.439.197-.642.396-.203.2-.362.451-.476.754v-1.167h-1.857v.905h1.043v3.371h-1.043v.905h3.19v-.905h-1.13v-1.14c0-.706.061-1.195.182-1.466.125-.275.314-.464.567-.567.257-.103.644-.156 1.162-.156h.203v-1.027h-.268zm4.47 0c-.589 0-1.19.244-1.804.733v-.653h-1.878v.905h.861v3.371h-.926v.905h2.853v-.905h-.91v-2.778c.607-.446 1.102-.669 1.488-.669.236 0 .402.077.498.23.1.15.15.394.15.733v3.388h1.905v-.905h-.888v-2.778c.553-.446 1.047-.669 1.482-.669.153 0 .284.041.391.123.111.078.179.18.204.305.029.121.043.332.043.631v3.292h1.921v-.905h-.904v-2.569c0-.442-.038-.776-.113-1.001-.075-.228-.221-.415-.439-.562-.214-.15-.489-.225-.824-.225-.582 0-1.21.269-1.884.808-.225-.539-.633-.808-1.225-.808zm15.28 0c-.539 0-1.135.235-1.787.706v-.626h-1.927v.905h.91v3.371h-.91v.905h2.821v-.905h-.893v-2.772c.567-.439 1.075-.658 1.525-.658.171 0 .316.061.434.182.118.118.177.373.177.765v3.388h1.889v-.905h-.872v-2.526c0-.442-.034-.778-.102-1.006-.068-.232-.212-.426-.434-.583-.218-.161-.494-.241-.829-.241zm12.588 0c-.539 0-1.135.235-1.788.706v-.626h-1.927v.905h.91v3.371h-.91v.905h2.821v-.905h-.894v-2.772c.567-.439 1.076-.658 1.525-.658.171 0 .316.061.434.182.118.118.177.373.177.765v3.388h1.889v-.905h-.872v-2.526c0-.442-.034-.778-.102-1.006-.068-.232-.212-.426-.434-.583-.218-.161-.494-.241-.829-.241zm44.562 0c-.678 0-1.276.253-1.793.76-.514.503-.77 1.165-.77 1.985 0 .749.234 1.381.701 1.894.467.514 1.072.771 1.814.771.407 0 .781-.091 1.124-.273.343-.182.594-.375.754-.578v.471c0 .343-.018.585-.053.728-.036.146-.116.3-.241.46-.121.161-.307.296-.557.407-.25.114-.521.171-.813.171-.528 0-1.017-.175-1.467-.525l-.664.739c.599.46 1.281.69 2.044.69.507 0 .965-.089 1.376-.268.41-.178.717-.4.921-.664.207-.26.337-.517.391-.77.054-.25.08-.635.08-1.156v-3.859h.931v-.905h-1.948v.738c-.535-.546-1.145-.819-1.83-.819zm14.076 0c-.539 0-1.135.235-1.787.706v-.626h-1.927v.905h.91v3.371h-.91v.905h2.821v-.905h-.894v-2.772c.567-.439 1.076-.658 1.525-.658.171 0 .316.061.434.182.118.118.176.373.176.765v3.388h1.889v-.905h-.872v-2.526c0-.442-.034-.778-.102-1.006-.068-.232-.212-.426-.434-.583-.218-.161-.494-.241-.829-.241zm5.234 0c-.678 0-1.275.253-1.793.76-.514.503-.771 1.165-.771 1.985 0 .749.234 1.381.701 1.894.467.514 1.072.771 1.814.771.407 0 .781-.091 1.124-.273.343-.182.594-.375.754-.578v.471c0 .343-.018.585-.053.728-.036.146-.116.3-.241.46-.121.161-.307.296-.557.407-.25.114-.521.171-.814.171-.528 0-1.017-.175-1.467-.525l-.664.739c.599.46 1.281.69 2.045.69.507 0 .965-.089 1.375-.268.41-.178.717-.4.921-.664.207-.26.337-.517.391-.77.054-.25.08-.635.08-1.156v-3.859h.931v-.905h-1.948v.738c-.535-.546-1.145-.819-1.83-.819zm-36.769.08v.905h.631l1.386 4.362h.958l1.21-3.747 1.188 3.747h.958l1.392-4.362h.744v-.905h-2.339v.905h.712l-.996 3.125-.99-3.125h.567v-.905h-2.505v.905h.567l-.99 3.125-.99-3.125h.68v-.905h-2.183zm21.644 0v.905h.733v2.381c0 .535.038.924.113 1.167.075.239.225.436.45.589.228.15.515.225.861.225.546 0 1.117-.227 1.713-.68v.594h1.911v-.905h-.894v-4.276h-1.932v.905h.915v2.804c-.535.45-1.038.674-1.509.674-.157 0-.287-.043-.391-.129-.103-.086-.166-.195-.188-.327-.021-.132-.032-.389-.032-.77v-3.158h-1.75zm-103.607.492c.211.421.369.715.476.883.107.168.296.424.567.77h-8.537v.541h8.537c-.368.385-.719.937-1.055 1.654h.412c.46-.514.856-.903 1.188-1.167.332-.268.675-.487 1.028-.658v-.241c-.307-.132-.634-.332-.98-.599-.346-.271-.756-.665-1.231-1.183h-.407zm15.2.188c.446 0 .822.148 1.129.444.307.293.496.621.567.985h-3.27c.064-.421.241-.764.53-1.028.289-.268.637-.401 1.044-.401zm32.487 0c.446 0 .822.148 1.129.444.307.293.496.621.567.985h-3.27c.064-.421.241-.764.53-1.028.289-.268.637-.401 1.043-.401zm15.907 0c.446 0 .823.148 1.13.444.307.293.496.621.567.985h-3.27c.064-.421.241-.764.53-1.028.289-.268.637-.401 1.043-.401zm15.436 0c.446 0 .822.148 1.129.444.307.293.496.621.567.985h-3.27c.064-.421.241-.764.53-1.028.289-.268.637-.401 1.044-.401zm14.269 0c.446 0 .822.148 1.129.444.307.293.496.621.567.985h-3.27c.064-.421.241-.764.53-1.028.289-.268.637-.401 1.044-.401zm6.299.192c.442 0 .831.163 1.167.487.335.321.503.747.503 1.279 0 .525-.167.954-.503 1.29-.335.332-.735.498-1.199.498-.475 0-.865-.166-1.172-.498-.303-.332-.455-.76-.455-1.284 0-.542.166-.972.498-1.29.332-.321.719-.482 1.162-.482zm19.31 0c.442 0 .831.163 1.167.487.335.321.503.747.503 1.279 0 .525-.167.954-.503 1.29-.335.332-.735.498-1.199.498-.475 0-.865-.166-1.172-.498-.303-.332-.455-.76-.455-1.284 0-.542.166-.972.498-1.29.332-.321.719-.482 1.161-.482zm-47.126.883h.642c.446 0 .79.034 1.033.102.246.064.446.197.599.396.157.196.236.44.236.733 0 .321-.082.585-.246.792-.161.203-.369.334-.626.391-.257.054-.662.081-1.215.081h-.423v-2.494zm-36.876.985c.45 0 .893.171 1.332.514v.605c-.439.414-.904.621-1.397.621-.285 0-.512-.082-.68-.246-.164-.164-.246-.368-.246-.61 0-.26.094-.473.283-.637.189-.164.425-.246.707-.246zm18.582 9.012c-.178 0-.326.061-.444.182-.114.121-.172.264-.172.428 0 .168.059.312.177.434.121.121.267.182.439.182.168 0 .312-.059.434-.177.121-.121.182-.267.182-.439 0-.171-.061-.316-.182-.434s-.266-.177-.434-.177zm35.859 0c-.178 0-.326.061-.444.182-.114.121-.172.264-.172.428 0 .168.059.312.177.434.121.121.267.182.439.182.168 0 .312-.059.434-.177.121-.121.182-.267.182-.439 0-.171-.061-.316-.182-.434s-.266-.177-.434-.177zm6.53 0c-.178 0-.327.061-.444.182-.114.121-.171.264-.171.428 0 .168.059.312.177.434.121.121.267.182.439.182.168 0 .312-.059.434-.177.121-.121.182-.267.182-.439 0-.171-.061-.316-.182-.434s-.266-.177-.434-.177zm-56.711.107v.931h.931v5.583h-.931v.931h2.911v-.931h-.856v-5.583h.958v-.931h-3.013zm3.629 0v.931h.851l-2.387 2.585 2.302 2.997h-.803v.931h3.024v-.931h-.797l-2.355-2.997 2.291-2.585h.792v-.931h-2.917zm27.821 0v.931h.936v5.583h-.936v.931h3.024v-.931h-.963v-1.916h.514c.646 0 1.128-.027 1.445-.08.321-.057.608-.166.861-.327.257-.161.471-.409.642-.744.175-.339.263-.721.263-1.145 0-.532-.132-.992-.396-1.381-.26-.392-.585-.644-.974-.755-.389-.111-.974-.166-1.755-.166h-2.66zm22.335.535l-1.017.931v.797h-.674v.905h.674v2.569c0 .507.025.863.075 1.07.05.207.171.38.364.519.193.136.444.204.754.204.26 0 .521-.047.781-.14v-.926c-.182.071-.367.107-.557.107-.178 0-.291-.047-.337-.14-.043-.096-.064-.346-.064-.749v-2.516h.958v-.905h-.958v-1.729zm-20.274.396h.696c.517 0 .887.031 1.108.091.221.061.407.201.557.423.15.221.225.499.225.835 0 .528-.141.897-.423 1.108-.282.207-.788.311-1.52.311h-.642v-2.767zm-24.02 1.189c-.71 0-1.34.257-1.889.77-.546.514-.819 1.169-.819 1.964 0 .839.28 1.506.84 2.002.564.492 1.242.738 2.034.738.51 0 .999-.109 1.467-.327.467-.221.847-.558 1.14-1.011l-.899-.396c-.414.571-.976.856-1.686.856-.489 0-.89-.148-1.204-.444-.314-.296-.503-.684-.567-1.162h4.357c-.021-.992-.316-1.738-.883-2.237-.564-.503-1.194-.754-1.889-.754zm15.81 0c-.71 0-1.34.257-1.889.77-.546.514-.819 1.169-.819 1.964 0 .839.28 1.506.84 2.002.564.492 1.241.738 2.033.738.51 0 .999-.109 1.467-.327.467-.221.847-.558 1.14-1.011l-.899-.396c-.414.571-.976.856-1.686.856-.489 0-.89-.148-1.204-.444-.314-.296-.503-.684-.567-1.162h4.356c-.021-.992-.316-1.738-.883-2.237-.564-.503-1.194-.754-1.889-.754zm15.056 0c-.76 0-1.404.257-1.932.77-.528.51-.792 1.165-.792 1.964 0 .799.26 1.456.781 1.97.525.514 1.172.77 1.943.77.749 0 1.39-.253 1.921-.76.535-.507.803-1.167.803-1.98 0-.814-.267-1.472-.803-1.975-.535-.507-1.176-.76-1.921-.76zm21.077 0c-.76 0-1.404.257-1.932.77-.528.51-.792 1.165-.792 1.964 0 .799.26 1.456.781 1.97.525.514 1.172.77 1.943.77.749 0 1.39-.253 1.921-.76.535-.507.803-1.167.803-1.98 0-.814-.267-1.472-.803-1.975-.535-.507-1.176-.76-1.921-.76zm12.551 0c-.71 0-1.34.257-1.889.77-.546.514-.819 1.169-.819 1.964 0 .839.28 1.506.84 2.002.564.492 1.242.738 2.034.738.51 0 .999-.109 1.467-.327.467-.221.847-.558 1.14-1.011l-.899-.396c-.414.571-.976.856-1.686.856-.489 0-.89-.148-1.204-.444-.314-.296-.503-.684-.567-1.162h4.357c-.021-.992-.316-1.738-.883-2.237-.564-.503-1.194-.754-1.889-.754zm-54.073.064c-.539 0-1.135.235-1.787.706v-.626h-1.927v.905h.91v3.372h-.91v.904h2.82v-.904h-.893v-2.772c.567-.439 1.075-.658 1.525-.658.171 0 .316.061.434.182.118.118.177.373.177.765v3.388h1.889v-.904h-.872v-2.526c0-.442-.034-.778-.102-1.006-.068-.232-.212-.426-.434-.583-.218-.161-.494-.241-.829-.241zm25.872 0c-.542 0-.98.146-1.312.439-.332.289-.498.649-.498 1.081 0 .428.151.778.455 1.049.307.268.818.462 1.531.583.482.078.803.164.963.257.164.093.246.237.246.434 0 .203-.098.362-.294.476-.196.114-.459.172-.787.172-.314 0-.587-.079-.819-.236-.228-.157-.359-.357-.391-.599v-.172h-.91v1.777h.91v-.289c.35.25.801.375 1.354.375.589 0 1.067-.141 1.434-.423.371-.285.557-.669.557-1.15 0-.325-.086-.608-.257-.851-.168-.246-.38-.421-.637-.525-.257-.107-.637-.2-1.14-.279-.525-.082-.867-.159-1.028-.23-.157-.075-.235-.21-.235-.407 0-.193.086-.346.257-.46.175-.118.396-.177.664-.177.525 0 .924.213 1.199.637v.316h.904v-1.718h-.904v.22c-.353-.2-.774-.3-1.263-.3zm22.81 0c-.539 0-1.135.235-1.787.706v-.626h-1.926v.905h.91v3.372h-.91v.904h2.82v-.904h-.894v-2.772c.567-.439 1.076-.658 1.526-.658.171 0 .316.061.434.182.118.118.177.373.177.765v3.388h1.889v-.904h-.873v-2.526c0-.442-.033-.778-.101-1.006-.068-.232-.212-.426-.434-.583-.218-.161-.495-.241-.83-.241zm12.588 0c-.539 0-1.135.235-1.787.706v-.626h-1.927v.905h.91v3.372h-.91v.904h2.82v-.904h-.893v-2.772c.567-.439 1.076-.658 1.525-.658.171 0 .316.061.434.182.118.118.176.373.176.765v3.388h1.889v-.904h-.872v-2.526c0-.442-.034-.778-.102-1.006-.068-.232-.212-.426-.434-.583-.218-.161-.494-.241-.829-.241zm-68.138.08v.905h.808v3.372h-.808v.904h2.623v-.904h-.797v-4.277h-1.825zm35.859 0v.905h.808v3.372h-.808v.904h2.623v-.904h-.797v-4.277h-1.825zm6.529 0v.905h.808v3.372h-.808v.904h2.623v-.904h-.797v-4.277h-1.825zm-61.715.492c.211.421.369.715.476.883.107.168.296.425.567.771h-8.536v.541h8.536c-.368.385-.719.936-1.054 1.654h.412c.46-.514.857-.903 1.189-1.167.332-.268.674-.487 1.027-.658v-.241c-.307-.132-.633-.332-.979-.599-.346-.271-.756-.665-1.231-1.183h-.407zm15.8.188c.446 0 .822.148 1.129.444.307.293.496.621.567.985h-3.27c.064-.421.241-.764.53-1.028.289-.268.637-.401 1.044-.401zm15.81 0c.446 0 .823.148 1.13.444.307.293.496.621.567.985h-3.27c.064-.421.241-.764.53-1.028.289-.268.637-.401 1.043-.401zm48.683 0c.446 0 .822.148 1.129.444.307.293.496.621.567.985h-3.27c.064-.421.241-.764.53-1.028.289-.268.637-.401 1.044-.401zm-33.654.166c.457 0 .846.164 1.167.492.321.328.482.745.482 1.252 0 .503-.159.921-.476 1.253-.314.328-.705.492-1.172.492-.46 0-.851-.163-1.172-.487-.318-.328-.476-.748-.476-1.258 0-.492.155-.906.466-1.242.31-.335.705-.503 1.183-.503zm21.077 0c.457 0 .846.164 1.167.492.321.328.482.745.482 1.252 0 .503-.159.921-.476 1.253-.314.328-.705.492-1.172.492-.46 0-.851-.163-1.173-.487-.318-.328-.476-.748-.476-1.258 0-.492.155-.906.466-1.242.31-.335.705-.503 1.183-.503zm17.137 10.906c-.178 0-.327.061-.444.182-.114.121-.171.264-.171.428 0 .168.059.312.177.434.121.121.267.182.439.182.168 0 .312-.059.434-.177.121-.121.182-.267.182-.439 0-.171-.061-.316-.182-.434s-.266-.177-.434-.177zm-110.431.107v.931h.808v5.582h-.808v.931h2.74v-.931h-.808v-5.582h.808v-.931h-2.74zm41.779 0v.904h.921v5.636h-.921v.904h1.916v-.776c.15.218.396.416.738.594.343.178.721.268 1.135.268.739 0 1.343-.263 1.814-.787.475-.528.712-1.177.712-1.948 0-.803-.243-1.449-.728-1.937-.482-.492-1.08-.738-1.793-.738-.742 0-1.368.292-1.878.877v-2.997h-1.916zm17.769 0v.904h.936v5.636h-.936v.904h2.853v-.904h-.899v-2.837c.607-.446 1.106-.669 1.499-.669.153 0 .285.043.396.129.114.086.184.194.209.326.025.132.038.395.038.787v3.168h1.9v-.904h-.883v-2.617c0-.45-.041-.79-.124-1.022-.079-.235-.228-.425-.45-.567-.221-.143-.503-.214-.845-.214-.549 0-1.129.246-1.739.738v-2.858h-1.953zm6.289 0v.904h.921v5.636h-.921v.904h2.73v-.904h-.792v-6.54h-1.937zm19.509 0v.904h.92v5.636h-.92v.904h1.916v-.776c.15.218.396.416.739.594.343.178.72.268 1.134.268.739 0 1.343-.263 1.814-.787.475-.528.712-1.177.712-1.948 0-.803-.243-1.449-.728-1.937-.482-.492-1.079-.738-1.793-.738-.742 0-1.369.292-1.879.877v-2.997h-1.916zm28.687.535l-1.017.931v.798h-.674v.904h.674v2.569c0 .507.025.864.075 1.071.05.207.172.38.364.519.193.136.444.204.754.204.26 0 .521-.046.781-.139v-.926c-.182.071-.367.107-.557.107-.178 0-.291-.046-.337-.139-.043-.096-.064-.346-.064-.749v-2.516h.958v-.904h-.958v-1.729zm-88.878 1.584c-.71 0-1.34.257-1.889.77-.546.514-.819 1.169-.819 1.964 0 .839.28 1.506.84 2.002.564.492 1.241.738 2.033.738.51 0 .999-.109 1.467-.327.467-.221.847-.558 1.14-1.011l-.899-.396c-.414.571-.976.857-1.686.857-.489 0-.89-.148-1.204-.444-.314-.296-.503-.684-.567-1.162h4.356c-.021-.992-.316-1.738-.883-2.237-.564-.503-1.194-.754-1.889-.754zm13.322 0c-1.06 0-1.805.403-2.237 1.21l.974.257c.228-.407.598-.61 1.108-.61.296 0 .535.057.717.171.186.114.303.243.353.386.05.143.075.346.075.61v.514c-.453-.293-.922-.439-1.408-.439-.521 0-.967.159-1.338.476-.368.318-.551.717-.551 1.199 0 .478.173.87.519 1.177.35.307.76.46 1.231.46.607 0 1.156-.239 1.648-.717v.631h1.777v-.904h-.872v-2.398c0-.421-.025-.728-.075-.921-.046-.193-.139-.371-.278-.535-.139-.168-.352-.303-.637-.407-.282-.107-.617-.161-1.006-.161zm18.064 0c-.671 0-1.263.255-1.777.765-.514.507-.77 1.151-.77 1.932 0 .731.235 1.377.706 1.937s1.117.84 1.937.84c1.16 0 1.972-.515 2.435-1.547l-.84-.396c-.321.678-.839 1.016-1.552 1.016-.514 0-.906-.185-1.177-.557-.271-.375-.407-.806-.407-1.295 0-.525.142-.948.428-1.269.285-.325.656-.487 1.113-.487.343 0 .642.1.899.3.26.2.414.487.46.861h.91v-1.959h-.91v.364c-.396-.339-.881-.508-1.456-.508zm38.707 0c-.71 0-1.34.257-1.889.77-.546.514-.819 1.169-.819 1.964 0 .839.28 1.506.84 2.002.564.492 1.242.738 2.034.738.51 0 .999-.109 1.467-.327.467-.221.847-.558 1.14-1.011l-.899-.396c-.414.571-.976.857-1.686.857-.489 0-.89-.148-1.204-.444-.314-.296-.503-.684-.567-1.162h4.357c-.021-.992-.316-1.738-.883-2.237-.564-.503-1.194-.754-1.889-.754zm10.351 0c-.71 0-1.34.257-1.889.77-.546.514-.819 1.169-.819 1.964 0 .839.28 1.506.84 2.002.564.492 1.242.738 2.034.738.51 0 .999-.109 1.466-.327.467-.221.847-.558 1.14-1.011l-.899-.396c-.414.571-.976.857-1.686.857-.489 0-.89-.148-1.204-.444-.314-.296-.503-.684-.567-1.162h4.356c-.021-.992-.315-1.738-.883-2.237-.564-.503-1.194-.754-1.89-.754zm-98.479.064c-.589 0-1.19.244-1.804.733v-.653h-1.878v.904h.861v3.372h-.926v.904h2.853v-.904h-.91v-2.778c.607-.446 1.102-.669 1.488-.669.236 0 .401.077.498.23.1.15.15.394.15.733v3.388h1.906v-.904h-.889v-2.778c.553-.446 1.047-.669 1.483-.669.153 0 .284.041.391.123.111.078.179.18.204.305.029.121.043.332.043.632v3.291h1.921v-.904h-.905v-2.569c0-.442-.037-.776-.112-1-.075-.228-.221-.416-.439-.562-.214-.15-.489-.225-.824-.225-.582 0-1.21.269-1.884.808-.225-.539-.633-.808-1.226-.808zm9.484 0c-.589 0-1.19.244-1.804.733v-.653h-1.879v.904h.862v3.372h-.926v.904h2.853v-.904h-.91v-2.778c.607-.446 1.102-.669 1.488-.669.236 0 .401.077.498.23.1.15.15.394.15.733v3.388h1.905v-.904h-.888v-2.778c.553-.446 1.047-.669 1.483-.669.153 0 .284.041.391.123.111.078.178.18.203.305.029.121.043.332.043.632v3.291h1.921v-.904h-.904v-2.569c0-.442-.037-.776-.112-1-.075-.228-.222-.416-.439-.562-.214-.15-.489-.225-.824-.225-.582 0-1.209.269-1.884.808-.225-.539-.633-.808-1.226-.808zm15.891 0c-.393 0-.703.032-.931.097-.225.064-.439.196-.642.396s-.362.451-.476.754v-1.166h-1.857v.904h1.044v3.372h-1.044v.904h3.19v-.904h-1.129v-1.14c0-.706.061-1.195.182-1.467.125-.275.314-.464.567-.567.257-.103.644-.155 1.161-.155h.204v-1.028h-.268zm18.347 0c-.542 0-.98.146-1.312.439-.332.289-.498.65-.498 1.082 0 .428.151.778.455 1.049.307.268.818.462 1.531.583.482.078.803.165.963.257.164.093.246.237.246.434 0 .203-.098.362-.294.476-.196.114-.459.172-.787.172-.314 0-.587-.079-.819-.236-.228-.157-.359-.357-.391-.599v-.171h-.91v1.777h.91v-.289c.35.25.801.375 1.354.375.589 0 1.067-.141 1.434-.423.371-.285.557-.669.557-1.151 0-.325-.086-.608-.257-.851-.168-.246-.38-.421-.637-.525-.257-.107-.637-.2-1.14-.278-.525-.082-.867-.159-1.028-.23-.157-.075-.235-.21-.235-.407 0-.193.086-.346.257-.46.175-.118.396-.176.664-.176.525 0 .924.212 1.199.637v.316h.904v-1.718h-.904v.219c-.353-.2-.774-.3-1.263-.3zm26.418 0c-.542 0-.979.146-1.311.439-.332.289-.498.65-.498 1.082 0 .428.152.778.455 1.049.307.268.817.462 1.531.583.482.078.803.165.963.257.164.093.246.237.246.434 0 .203-.098.362-.295.476-.196.114-.459.172-.787.172-.314 0-.587-.079-.819-.236-.228-.157-.359-.357-.391-.599v-.171h-.91v1.777h.91v-.289c.35.25.801.375 1.354.375.589 0 1.067-.141 1.435-.423.371-.285.557-.669.557-1.151 0-.325-.086-.608-.257-.851-.168-.246-.38-.421-.637-.525-.257-.107-.637-.2-1.14-.278-.525-.082-.867-.159-1.027-.23-.157-.075-.236-.21-.236-.407 0-.193.086-.346.257-.46.175-.118.396-.176.664-.176.524 0 .924.212 1.199.637v.316h.905v-1.718h-.905v.219c-.353-.2-.774-.3-1.263-.3zm5.031 0c-.542 0-.98.146-1.312.439-.332.289-.498.65-.498 1.082 0 .428.151.778.455 1.049.307.268.817.462 1.531.583.482.078.803.165.964.257.164.093.246.237.246.434 0 .203-.098.362-.295.476-.196.114-.458.172-.787.172-.314 0-.587-.079-.819-.236-.228-.157-.359-.357-.391-.599v-.171h-.91v1.777h.91v-.289c.35.25.801.375 1.354.375.589 0 1.067-.141 1.434-.423.371-.285.557-.669.557-1.151 0-.325-.086-.608-.257-.851-.168-.246-.38-.421-.637-.525-.257-.107-.637-.2-1.14-.278-.525-.082-.867-.159-1.028-.23-.157-.075-.235-.21-.235-.407 0-.193.086-.346.257-.46.175-.118.396-.176.664-.176.525 0 .924.212 1.199.637v.316h.904v-1.718h-.904v.219c-.353-.2-.774-.3-1.263-.3zm20.295 0c-.393 0-.703.032-.931.097-.225.064-.438.196-.642.396-.203.2-.362.451-.476.754v-1.166h-1.857v.904h1.043v3.372h-1.043v.904h3.19v-.904h-1.13v-1.14c0-.706.061-1.195.182-1.467.125-.275.314-.464.567-.567.257-.103.644-.155 1.162-.155h.203v-1.028h-.268zm-33.472.081v.904h.733v2.382c0 .535.037.924.112 1.167.075.239.225.435.45.589.228.15.516.225.862.225.546 0 1.117-.226 1.713-.68v.594h1.91v-.904h-.893v-4.276h-1.932v.904h.915v2.804c-.535.45-1.038.674-1.509.674-.157 0-.287-.043-.391-.129-.103-.086-.166-.194-.187-.326-.021-.132-.033-.389-.033-.771v-3.157h-1.75zm40.039 0v.904h.808v3.372h-.808v.904h2.623v-.904h-.798v-4.276h-1.825zm-115.579.492c.211.421.369.715.476.883.107.168.296.425.567.771h-8.536v.541h8.536c-.368.385-.719.936-1.054 1.654h.412c.46-.514.857-.903 1.189-1.167.332-.268.674-.487 1.027-.658v-.241c-.307-.132-.633-.332-.979-.599-.346-.271-.756-.666-1.231-1.183h-.407zm31.609.188c.446 0 .823.148 1.13.444.307.293.496.62.567.984h-3.27c.064-.421.241-.763.53-1.027.289-.268.637-.402 1.043-.402zm70.092 0c.446 0 .822.148 1.129.444.307.293.496.62.567.984h-3.27c.064-.421.241-.763.53-1.027.289-.268.637-.402 1.044-.402zm10.351 0c.446 0 .823.148 1.13.444.307.293.496.62.567.984h-3.27c.064-.421.241-.763.53-1.027.289-.268.637-.402 1.043-.402zm-60.233.102c.439 0 .821.151 1.146.455.328.3.492.723.492 1.269 0 .564-.164 1.013-.492 1.349-.328.335-.719.503-1.172.503-.432 0-.814-.157-1.146-.471-.328-.318-.492-.746-.492-1.285 0-.589.17-1.038.509-1.349.339-.314.724-.471 1.156-.471zm43.566 0c.439 0 .821.151 1.146.455.328.3.492.723.492 1.269 0 .564-.164 1.013-.492 1.349-.328.335-.719.503-1.172.503-.432 0-.814-.157-1.146-.471-.328-.318-.492-.746-.492-1.285 0-.589.17-1.038.509-1.349.339-.314.724-.471 1.156-.471zm-50.824 1.959c.45 0 .894.172 1.333.514v.605c-.439.414-.904.621-1.397.621-.285 0-.512-.082-.68-.246-.164-.164-.246-.368-.246-.61 0-.26.095-.473.284-.637.189-.164.425-.246.706-.246z" font-family="Rockwell" letter-spacing="0" word-spacing="0" text-anchor="end" fill="#6d6d6d"/><path style="line-height:13.91549778px;-inkscape-font-specification:Rockwell;text-align:end" d="M410.11 224.331c-1.156 0-2.071.362-2.746 1.087-.674.724-1.012 1.634-1.012 2.73 0 1.045.33 1.952.99 2.719.66.764 1.663 1.146 3.008 1.146 1.124 0 2.028-.314 2.714-.942.685-.628 1.027-1.465 1.027-2.51l-.005-.257h-2.708l-.001.931h1.344c-.079.535-.35.969-.813 1.301-.464.328-.992.492-1.584.492-.756 0-1.404-.26-1.943-.781-.535-.521-.803-1.226-.803-2.114 0-.774.235-1.436.706-1.986.471-.549 1.113-.824 1.926-.824.585 0 1.104.161 1.558.482.457.318.774.681.953 1.091h.947v-2.446h-.947v.83c-.703-.632-1.573-.948-2.612-.948zm-37.384.118v.931h.963v5.583h-.963v.931h6.187v-2.286h-.92v1.354h-3.179v-2.436h2.767v-.931h-2.767v-2.216h3.179v1.312h.92v-2.243h-6.187zm52.071 0v.905h.995v2.049c-.521-.557-1.131-.835-1.83-.835-.66 0-1.252.246-1.777.738-.525.492-.787 1.165-.787 2.018 0 .849.255 1.504.765 1.964.51.46 1.103.69 1.777.69.728 0 1.345-.282 1.852-.846v.76h1.948v-.904h-.931v-6.541h-2.012zm15.355 0v.905h.931v5.636h-.931v.904h2.842v-.904h-.894v-1.702l2.607 2.607h1.333v-.904h-.91l-1.825-1.82 1.943-1.616h.792v-.84h-2.863v.84h.862l-1.938 1.547v-4.651h-1.948zm17.17 0v.931h1.065v5.583h-1.065v.931h3.05v-.931h-1.065v-5.347l3.57 6.353h1.156v-6.589h1.098v-.931h-3.056v.931h1.054v4.854l-3.265-5.786h-2.542zm19.588 0v.905h.937v5.636h-.937v.904h2.853v-.904h-.899v-2.837c.607-.446 1.106-.669 1.499-.669.153 0 .285.043.396.128.114.086.184.195.209.327.025.132.038.395.038.787v3.168h1.9v-.904h-.883v-2.617c0-.45-.041-.79-.123-1.022-.079-.235-.228-.425-.45-.567-.221-.143-.503-.214-.845-.214-.549 0-1.129.246-1.739.738v-2.858h-1.954zm-85.998.535l-1.017.931v.797h-.674v.905h.674v2.569c0 .507.025.863.075 1.07.05.207.171.38.364.519.193.136.444.204.754.204.26 0 .521-.047.782-.14v-.926c-.182.071-.368.107-.557.107-.178 0-.291-.047-.337-.14-.043-.096-.064-.346-.064-.749v-2.515h.958v-.905h-.958v-1.729zm105.416 0l-1.017.931v.797h-.674v.905h.674v2.569c0 .507.025.863.075 1.07.05.207.171.38.364.519.193.136.444.204.754.204.26 0 .521-.047.782-.14v-.926c-.182.071-.368.107-.557.107-.178 0-.291-.047-.337-.14-.043-.096-.064-.346-.064-.749v-2.515h.958v-.905h-.958v-1.729zm-101.017 1.584c-.71 0-1.34.257-1.889.77-.546.514-.819 1.169-.819 1.964 0 .839.28 1.506.84 2.002.564.492 1.241.738 2.033.738.51 0 .999-.109 1.467-.327.467-.221.847-.558 1.14-1.011l-.899-.396c-.414.571-.976.856-1.686.856-.489 0-.891-.148-1.205-.444-.314-.296-.503-.684-.567-1.162h4.356c-.021-.992-.316-1.738-.883-2.237-.564-.503-1.194-.754-1.889-.754zm22.415 0c-.71 0-1.34.257-1.889.77-.546.514-.819 1.169-.819 1.964 0 .839.28 1.506.84 2.002.564.492 1.241.738 2.033.738.51 0 .999-.109 1.467-.327.467-.221.847-.558 1.14-1.011l-.899-.396c-.414.571-.976.856-1.686.856-.489 0-.89-.148-1.204-.444-.314-.296-.503-.684-.567-1.162h4.356c-.021-.992-.316-1.738-.883-2.237-.564-.503-1.194-.754-1.889-.754zm12.851 0c-1.06 0-1.806.403-2.238 1.209l.974.257c.228-.407.598-.61 1.108-.61.296 0 .535.057.717.171.186.114.304.243.353.386.05.143.075.346.075.61v.514c-.453-.293-.922-.439-1.408-.439-.521 0-.967.158-1.338.476-.368.318-.551.717-.551 1.199 0 .478.173.871.519 1.178.35.307.76.46 1.231.46.607 0 1.156-.239 1.648-.717v.631h1.777v-.904h-.872v-2.398c0-.421-.025-.728-.075-.921-.046-.193-.139-.371-.279-.535-.139-.168-.351-.304-.637-.407-.282-.107-.617-.16-1.006-.16zm18.395 0c-.71 0-1.34.257-1.889.77-.546.514-.819 1.169-.819 1.964 0 .839.28 1.506.84 2.002.564.492 1.242.738 2.034.738.51 0 .999-.109 1.467-.327.467-.221.847-.558 1.14-1.011l-.899-.396c-.414.571-.976.856-1.686.856-.489 0-.89-.148-1.204-.444-.314-.296-.503-.684-.567-1.162h4.357c-.021-.992-.316-1.738-.883-2.237-.564-.503-1.194-.754-1.889-.754zm18.984 0c-1.06 0-1.805.403-2.237 1.209l.974.257c.228-.407.598-.61 1.108-.61.296 0 .535.057.717.171.186.114.303.243.353.386.05.143.075.346.075.61v.514c-.453-.293-.922-.439-1.408-.439-.521 0-.967.158-1.338.476-.368.318-.551.717-.551 1.199 0 .478.173.871.519 1.178.35.307.76.46 1.231.46.607 0 1.156-.239 1.648-.717v.631h1.777v-.904h-.872v-2.398c0-.421-.025-.728-.075-.921-.046-.193-.139-.371-.278-.535-.139-.168-.352-.304-.637-.407-.282-.107-.617-.16-1.006-.16zm5.946 0c-.671 0-1.263.255-1.777.765-.514.507-.77 1.151-.77 1.932 0 .731.235 1.377.706 1.937s1.117.84 1.937.84c1.16 0 1.972-.515 2.436-1.547l-.84-.396c-.321.678-.839 1.017-1.552 1.017-.514 0-.907-.185-1.178-.557-.271-.375-.407-.806-.407-1.295 0-.525.143-.948.428-1.269.285-.325.656-.487 1.113-.487.343 0 .642.1.899.3.26.2.414.487.46.862h.91v-1.959h-.91v.364c-.396-.339-.881-.508-1.456-.508zm17.212 0c-.71 0-1.34.257-1.889.77-.546.514-.819 1.169-.819 1.964 0 .839.28 1.506.84 2.002.564.492 1.242.738 2.034.738.51 0 .999-.109 1.467-.327.467-.221.847-.558 1.14-1.011l-.899-.396c-.414.571-.976.856-1.686.856-.489 0-.89-.148-1.204-.444-.314-.296-.503-.684-.567-1.162h4.357c-.021-.992-.316-1.738-.883-2.237-.564-.503-1.194-.754-1.889-.754zm14.44 0c-.71 0-1.34.257-1.889.77-.546.514-.819 1.169-.819 1.964 0 .839.28 1.506.84 2.002.564.492 1.241.738 2.033.738.51 0 .999-.109 1.467-.327.467-.221.847-.558 1.14-1.011l-.899-.396c-.414.571-.976.856-1.686.856-.489 0-.891-.148-1.205-.444-.314-.296-.503-.684-.567-1.162h4.356c-.021-.992-.316-1.738-.883-2.237-.564-.503-1.194-.754-1.889-.754zm-122.131.064c-.393 0-.703.032-.931.096-.225.064-.439.197-.642.396-.203.2-.362.451-.476.754v-1.167h-1.857v.905h1.043v3.372h-1.043v.904h3.189v-.904h-1.129v-1.14c0-.706.061-1.195.182-1.467.125-.275.314-.464.567-.567.257-.103.644-.155 1.162-.155h.203v-1.028h-.268zm2.698 0c-.542 0-.979.146-1.311.439-.332.289-.498.649-.498 1.081 0 .428.151.778.455 1.049.307.268.817.462 1.531.583.482.078.803.164.963.257.164.093.246.237.246.434 0 .203-.098.362-.295.476-.196.114-.458.171-.787.171-.314 0-.587-.078-.819-.235-.228-.157-.359-.357-.391-.599v-.172h-.91v1.777h.91v-.289c.35.25.801.375 1.354.375.589 0 1.067-.141 1.435-.423.371-.285.557-.669.557-1.15 0-.325-.086-.608-.257-.851-.168-.246-.38-.421-.637-.525-.257-.107-.637-.2-1.14-.279-.525-.082-.867-.159-1.027-.23-.157-.075-.236-.21-.236-.407 0-.193.086-.346.257-.46.175-.118.396-.177.664-.177.525 0 .924.213 1.199.637v.316h.905v-1.718h-.905v.22c-.353-.2-.774-.3-1.263-.3zm16.528 0c-.393 0-.703.032-.931.096-.225.064-.439.197-.642.396-.203.2-.362.451-.476.754v-1.167h-1.857v.905h1.044v3.372h-1.044v.904h3.19v-.904h-1.129v-1.14c0-.706.061-1.195.182-1.467.125-.275.314-.464.567-.567.257-.103.644-.155 1.162-.155h.204v-1.028h-.268zm34.949 0c-.539 0-1.135.235-1.787.706v-.626h-1.927v.905h.91v3.372h-.91v.904h2.821v-.904h-.893v-2.772c.567-.439 1.076-.658 1.525-.658.171 0 .315.061.433.182.118.118.177.373.177.765v3.388h1.889v-.904h-.872v-2.526c0-.442-.034-.778-.102-1.006-.068-.232-.212-.426-.434-.583-.218-.161-.494-.241-.829-.241zm47.645 0c-.542 0-.979.146-1.311.439-.332.289-.498.649-.498 1.081 0 .428.151.778.455 1.049.307.268.817.462 1.531.583.482.078.803.164.963.257.164.093.246.237.246.434 0 .203-.098.362-.295.476-.196.114-.458.171-.787.171-.314 0-.587-.078-.819-.235-.228-.157-.359-.357-.391-.599v-.172h-.91v1.777h.91v-.289c.35.25.801.375 1.354.375.589 0 1.067-.141 1.435-.423.371-.285.557-.669.557-1.15 0-.325-.086-.608-.257-.851-.168-.246-.38-.421-.637-.525-.257-.107-.637-.2-1.14-.279-.525-.082-.867-.159-1.027-.23-.157-.075-.236-.21-.236-.407 0-.193.086-.346.257-.46.175-.118.396-.177.664-.177.525 0 .924.213 1.199.637v.316h.904v-1.718h-.904v.22c-.353-.2-.775-.3-1.263-.3zm27.521 0c-.539 0-1.135.235-1.787.706v-.626h-1.927v.905h.91v3.372h-.91v.904h2.82v-.904h-.893v-2.772c.567-.439 1.076-.658 1.525-.658.171 0 .316.061.434.182.118.118.176.373.176.765v3.388h1.889v-.904h-.872v-2.526c0-.442-.034-.778-.102-1.006-.068-.232-.212-.426-.434-.583-.218-.161-.494-.241-.829-.241zm-59.65.08v1.317h1.317v-1.317h-1.317zm44.937 0v1.836h.867v-.996h2.131l-3.249 3.495v.846h4.458v-1.905h-.888v1.059h-2.371l3.259-3.43v-.905h-4.206zm-131.711.492c.211.421.369.715.476.883.107.168.296.424.567.77h-8.536v.541h8.536c-.368.385-.719.936-1.054 1.654h.412c.46-.514.857-.903 1.189-1.167.332-.268.674-.487 1.027-.658v-.241c-.307-.132-.633-.332-.979-.599-.346-.271-.756-.666-1.231-1.183h-.407zm28.998.188c.446 0 .822.148 1.129.444.307.293.496.621.567.985h-3.27c.064-.421.241-.764.53-1.028.289-.268.637-.401 1.044-.401zm22.415 0c.446 0 .823.148 1.13.444.307.293.496.621.567.985h-3.27c.064-.421.241-.764.53-1.028.289-.268.637-.401 1.043-.401zm31.246 0c.446 0 .822.148 1.129.444.307.293.496.621.567.985h-3.27c.064-.421.241-.764.53-1.028.289-.268.637-.401 1.044-.401zm42.143 0c.446 0 .822.148 1.129.444.307.293.496.621.567.985h-3.27c.064-.421.241-.764.53-1.028.289-.268.637-.401 1.044-.401zm14.44 0c.446 0 .822.148 1.129.444.307.293.496.621.567.985h-3.27c.064-.421.241-.764.53-1.028.289-.268.637-.401 1.044-.401zm-81.465.117c.428 0 .813.147 1.156.439.346.293.519.726.519 1.301 0 .571-.169 1.018-.508 1.343-.335.321-.721.482-1.156.482-.45 0-.836-.153-1.161-.46-.321-.307-.482-.746-.482-1.317 0-.503.157-.926.471-1.269.314-.346.701-.519 1.162-.519zm6.117 1.943c.45 0 .894.171 1.333.514v.605c-.439.414-.904.621-1.397.621-.285 0-.512-.082-.68-.246-.164-.164-.246-.368-.246-.61 0-.26.095-.473.284-.637.189-.164.425-.246.706-.246zm37.379 0c.45 0 .894.171 1.333.514v.605c-.439.414-.904.621-1.397.621-.285 0-.512-.082-.68-.246-.164-.164-.246-.368-.246-.61 0-.26.095-.473.284-.637.189-.164.425-.246.706-.246zm-14.499 1.124v1.317h1.317v-1.317h-1.317zm-26.338 7.878c-.628 0-1.15.187-1.568.562-.414.371-.621.869-.621 1.493 0 .403.095.753.284 1.049.193.293.449.519.77.68.321.157.815.325 1.483.503.574.153.966.309 1.173.466.207.153.31.406.31.76 0 .364-.126.658-.38.883-.253.225-.564.337-.931.337-.721 0-1.304-.405-1.75-1.215v-.658h-.931v2.703h.931v-.615c.542.489 1.152.733 1.83.733.66 0 1.213-.207 1.659-.621.45-.414.674-.938.674-1.574 0-.45-.107-.848-.321-1.194-.214-.346-.469-.592-.765-.738-.296-.15-.772-.31-1.429-.482-.503-.128-.84-.228-1.011-.3-.171-.071-.313-.182-.423-.332-.111-.153-.166-.33-.166-.53 0-.26.109-.484.327-.669.218-.189.53-.283.937-.283.671 0 1.197.287 1.579.861v.519h.91v-2.259h-.91v.498c-.51-.385-1.063-.578-1.659-.578zm11.764.01c-.178 0-.327.061-.444.182-.114.121-.171.264-.171.428 0 .168.059.312.177.434.121.121.267.182.439.182.168 0 .312-.059.434-.177.121-.121.182-.267.182-.439 0-.171-.061-.316-.182-.434s-.266-.177-.434-.177zm49.197 0c-.178 0-.327.061-.444.182-.114.121-.171.264-.171.428 0 .168.058.312.176.434.121.121.268.182.439.182.168 0 .312-.059.434-.177.121-.121.182-.267.182-.439 0-.171-.061-.316-.182-.434s-.266-.177-.434-.177zm-41.104.107v.905h.92v5.636h-.92v.904h2.73v-.904h-.792v-6.541h-1.937zm32.674 0v.905h.921v5.636h-.921v.904h1.916v-.776c.15.218.396.416.738.594.343.178.721.268 1.135.268.739 0 1.343-.263 1.814-.787.475-.528.712-1.177.712-1.948 0-.803-.243-1.449-.728-1.937-.482-.492-1.08-.738-1.793-.738-.742 0-1.368.292-1.878.877v-2.997h-1.916zm20.183 0v.905h.995v2.05c-.521-.557-1.131-.835-1.83-.835-.66 0-1.253.246-1.777.738-.525.492-.787 1.165-.787 2.018 0 .849.255 1.504.765 1.964.51.46 1.103.69 1.777.69.728 0 1.345-.282 1.852-.846v.76h1.948v-.904h-.931v-6.541h-2.012zm-32.643.535l-1.017.931v.797h-.674v.905h.674v2.569c0 .507.025.864.075 1.071.05.207.172.38.364.519.193.136.444.204.754.204.26 0 .521-.046.781-.139v-.926c-.182.071-.367.107-.557.107-.178 0-.291-.046-.337-.139-.043-.096-.064-.346-.064-.749v-2.516h.958v-.905h-.958v-1.729zm-23.624 1.584c-.71 0-1.34.257-1.889.77-.546.514-.819 1.169-.819 1.964 0 .839.28 1.506.84 2.002.564.492 1.241.738 2.033.738.51 0 .999-.109 1.467-.327.467-.221.847-.558 1.14-1.011l-.899-.396c-.414.571-.976.857-1.686.857-.489 0-.891-.148-1.205-.444-.314-.296-.503-.684-.567-1.162h4.356c-.021-.992-.316-1.738-.883-2.237-.564-.503-1.194-.754-1.889-.754zm28.024 0c-.71 0-1.34.257-1.889.77-.546.514-.819 1.169-.819 1.964 0 .839.28 1.506.84 2.002.564.492 1.242.738 2.034.738.51 0 .999-.109 1.467-.327.467-.221.847-.558 1.14-1.011l-.899-.396c-.414.571-.976.857-1.686.857-.489 0-.89-.148-1.204-.444-.314-.296-.503-.684-.567-1.162h4.357c-.021-.992-.316-1.738-.883-2.237-.564-.503-1.194-.754-1.889-.754zm34.318 0c-.71 0-1.34.257-1.889.77-.546.514-.819 1.169-.819 1.964 0 .839.28 1.506.84 2.002.564.492 1.242.738 2.034.738.51 0 .999-.109 1.467-.327.467-.221.847-.558 1.14-1.011l-.899-.396c-.414.571-.976.857-1.686.857-.489 0-.89-.148-1.204-.444-.314-.296-.503-.684-.567-1.162h4.357c-.021-.992-.316-1.738-.883-2.237-.564-.503-1.194-.754-1.889-.754zm-71.628.064c-.721 0-1.335.298-1.841.894v-.814h-1.889v.905h.872v5.695h-.947v.904h2.97v-.904h-1.006v-2.061c.528.528 1.134.792 1.82.792.66 0 1.249-.242 1.766-.728.517-.485.776-1.147.776-1.986 0-.799-.239-1.449-.717-1.948-.475-.5-1.076-.749-1.804-.749zm28.602 0c-.539 0-1.135.235-1.787.706v-.626h-1.927v.905h.91v3.372h-.91v.904h2.821v-.904h-.893v-2.772c.567-.439 1.075-.658 1.525-.658.171 0 .316.061.434.182.118.118.177.373.177.765v3.388h1.889v-.904h-.872v-2.526c0-.442-.034-.778-.102-1.006-.068-.232-.212-.426-.434-.583-.218-.161-.494-.241-.829-.241zm16.046 0c-.392 0-.703.032-.931.097-.225.064-.439.196-.642.396s-.362.451-.476.754v-1.167h-1.857v.905h1.043v3.372h-1.043v.904h3.189v-.904h-1.129v-1.14c0-.706.061-1.195.182-1.467.125-.275.314-.464.567-.567.257-.103.644-.155 1.161-.155h.204v-1.028h-.268zm14.74 0c-.539 0-1.135.235-1.787.706v-.626h-1.926v.905h.91v3.372h-.91v.904h2.821v-.904h-.894v-2.772c.567-.439 1.076-.658 1.526-.658.171 0 .316.061.434.182.118.118.177.373.177.765v3.388h1.889v-.904h-.873v-2.526c0-.442-.033-.778-.101-1.006-.068-.232-.212-.426-.434-.583-.218-.161-.495-.241-.83-.241zm19.439 0c-.539 0-1.135.235-1.787.706v-.626h-1.927v.905h.91v3.372h-.91v.904h2.82v-.904h-.893v-2.772c.567-.439 1.076-.658 1.525-.658.171 0 .316.061.434.182.118.118.176.373.176.765v3.388h1.889v-.904h-.872v-2.526c0-.442-.034-.778-.102-1.006-.068-.232-.212-.426-.434-.583-.218-.161-.494-.241-.829-.241zm-75.502.08v.905h.808v3.372h-.808v.904h2.623v-.904h-.798v-4.277h-1.825zm15.387 0v.905h.733v2.382c0 .535.037.924.112 1.167.075.239.225.435.45.589.228.15.516.225.862.225.546 0 1.117-.227 1.713-.68v.594h1.911v-.904h-.894v-4.277h-1.932v.905h.915v2.804c-.535.45-1.038.674-1.509.674-.157 0-.287-.043-.391-.129-.103-.086-.166-.194-.187-.326-.021-.132-.032-.389-.032-.771v-3.158h-1.75zm33.809 0v.905h.808v3.372h-.808v.904h2.623v-.904h-.797v-4.277h-1.825zm-68.309.492c.211.421.369.715.476.883.107.168.296.425.567.771h-8.536v.541h8.536c-.368.385-.719.936-1.054 1.654h.412c.46-.514.857-.903 1.189-1.167.332-.268.674-.487 1.027-.658v-.241c-.307-.132-.633-.332-.979-.599-.346-.271-.756-.665-1.231-1.183h-.407zm25.101.188c.446 0 .822.148 1.129.444.307.293.496.621.567.985h-3.27c.064-.421.241-.763.53-1.027.289-.268.637-.402 1.044-.402zm28.024 0c.446 0 .823.148 1.13.444.307.293.496.621.567.985h-3.271c.064-.421.241-.763.53-1.027.289-.268.637-.402 1.043-.402zm34.318 0c.446 0 .822.148 1.129.444.307.293.496.621.567.985h-3.27c.064-.421.241-.763.53-1.027.289-.268.637-.402 1.044-.402zm-22.672.102c.439 0 .821.151 1.146.455.328.3.492.723.492 1.269 0 .564-.164 1.013-.492 1.349-.328.335-.719.503-1.172.503-.432 0-.814-.157-1.146-.471-.328-.318-.492-.746-.492-1.285 0-.589.17-1.038.509-1.349.339-.314.724-.471 1.156-.471zm15.891.016c.428 0 .813.146 1.156.439.346.293.519.726.519 1.301 0 .571-.17 1.018-.509 1.343-.335.321-.721.482-1.156.482-.45 0-.836-.153-1.161-.46-.321-.307-.482-.746-.482-1.317 0-.503.157-.926.471-1.269.314-.346.701-.519 1.161-.519zm-65.034.021c.421 0 .796.155 1.124.466.332.31.498.742.498 1.296 0 .567-.158 1.013-.476 1.338-.314.325-.714.487-1.199.487-.346 0-.648-.087-.905-.262-.257-.178-.444-.398-.562-.658-.118-.26-.177-.534-.177-.819 0-.557.17-1.003.509-1.338.343-.339.738-.508 1.188-.508zm19.359 10.923c-1.135 0-2.055.364-2.762 1.092-.706.728-1.059 1.632-1.059 2.714 0 .664.151 1.304.455 1.921.303.614.757 1.094 1.36 1.44.607.343 1.27.514 1.991.514 1.131 0 2.063-.362 2.794-1.086.735-.728 1.102-1.65 1.102-2.767 0-1.095-.36-2.007-1.081-2.735-.721-.728-1.654-1.092-2.799-1.092zm29.142.01c-.178 0-.326.061-.444.182-.114.121-.172.264-.172.428 0 .168.059.312.177.434.121.121.267.182.439.182.168 0 .312-.059.434-.177.121-.121.182-.267.182-.439 0-.171-.061-.316-.182-.434s-.266-.177-.434-.177zm8.242 0c-.178 0-.326.061-.444.182-.114.121-.172.264-.172.428 0 .168.059.312.177.434.121.121.267.182.439.182.168 0 .312-.059.434-.177.121-.121.182-.267.182-.439 0-.171-.061-.316-.182-.434s-.266-.177-.434-.177zm-37.395.979c.764 0 1.397.275 1.9.824.507.546.76 1.215.76 2.007 0 .785-.248 1.461-.744 2.028-.496.564-1.129.846-1.9.846-.778 0-1.406-.277-1.884-.83-.478-.553-.717-1.238-.717-2.055 0-.803.241-1.473.723-2.012.482-.539 1.102-.808 1.862-.808zm18.213 1.247c-1.06 0-1.805.403-2.237 1.21l.974.257c.228-.407.597-.61 1.107-.61.296 0 .535.057.717.172.186.114.304.242.353.385.05.143.075.346.075.61v.514c-.453-.293-.922-.439-1.408-.439-.521 0-.967.159-1.338.476-.368.318-.551.717-.551 1.199 0 .478.173.87.519 1.177.35.307.76.46 1.231.46.607 0 1.156-.239 1.648-.717v.631h1.777v-.904h-.872v-2.398c0-.421-.025-.728-.075-.92-.046-.193-.139-.371-.279-.535-.139-.168-.351-.303-.637-.407-.282-.107-.617-.161-1.006-.161zm23.865 0c-.71 0-1.34.257-1.889.77-.546.514-.819 1.169-.819 1.964 0 .838.28 1.506.84 2.002.564.492 1.242.738 2.034.738.51 0 .999-.109 1.467-.327.467-.221.847-.558 1.14-1.011l-.899-.396c-.414.571-.976.856-1.686.856-.489 0-.89-.148-1.204-.444-.314-.296-.503-.683-.567-1.161h4.357c-.021-.992-.316-1.738-.883-2.238-.564-.503-1.194-.754-1.889-.754zm10.351 0c-.71 0-1.34.257-1.889.77-.546.514-.819 1.169-.819 1.964 0 .838.28 1.506.84 2.002.564.492 1.241.738 2.033.738.51 0 .999-.109 1.467-.327.467-.221.847-.558 1.14-1.011l-.899-.396c-.414.571-.976.856-1.686.856-.489 0-.891-.148-1.205-.444-.314-.296-.503-.683-.567-1.161h4.356c-.021-.992-.316-1.738-.883-2.238-.564-.503-1.194-.754-1.889-.754zm-43.839.064c-.393 0-.703.032-.931.097-.225.064-.439.196-.642.396s-.362.451-.476.754v-1.166h-1.857v.904h1.044v3.372h-1.044v.904h3.19v-.904h-1.129v-1.14c0-.706.061-1.195.182-1.467.125-.275.314-.464.567-.567.257-.103.644-.155 1.161-.155h.204v-1.028h-.268zm3.072 0c-.678 0-1.276.253-1.793.76-.514.503-.77 1.165-.77 1.985 0 .749.233 1.381.701 1.895.467.514 1.072.77 1.814.77.407 0 .781-.091 1.124-.273.343-.182.594-.375.755-.578v.471c0 .343-.018.585-.054.728-.036.146-.116.3-.241.46-.121.161-.307.296-.557.407-.25.114-.521.172-.813.172-.528 0-1.017-.175-1.467-.525l-.664.738c.599.46 1.281.69 2.044.69.507 0 .965-.089 1.376-.268.41-.178.717-.399.92-.664.207-.26.337-.517.391-.77.054-.25.081-.636.081-1.157v-3.859h.931v-.904h-1.948v.738c-.535-.546-1.145-.819-1.83-.819zm13.573 0c-.539 0-1.135.235-1.787.706v-.626h-1.927v.904h.91v3.372h-.91v.904h2.821v-.904h-.894v-2.772c.567-.439 1.076-.658 1.525-.658.171 0 .316.061.434.182.118.118.176.373.176.765v3.388h1.889v-.904h-.872v-2.526c0-.442-.034-.778-.102-1.006-.068-.232-.212-.426-.434-.583-.218-.161-.494-.241-.829-.241zm7.761 0c-.542 0-.98.147-1.312.439-.332.289-.498.649-.498 1.081 0 .428.152.778.455 1.049.307.268.817.462 1.531.583.482.078.803.164.963.257.164.093.246.237.246.434 0 .203-.098.362-.294.476-.196.114-.459.172-.787.172-.314 0-.587-.079-.819-.236-.228-.157-.359-.357-.391-.599v-.171h-.91v1.777h.91v-.289c.35.25.801.375 1.354.375.589 0 1.067-.141 1.435-.423.371-.285.557-.669.557-1.151 0-.325-.086-.608-.257-.851-.168-.246-.38-.421-.637-.525-.257-.107-.637-.2-1.14-.278-.525-.082-.867-.159-1.028-.23-.157-.075-.235-.21-.235-.407 0-.193.086-.346.257-.46.175-.118.396-.176.664-.176.525 0 .924.212 1.199.637v.316h.904v-1.718h-.904v.219c-.353-.2-.774-.3-1.263-.3zm16.42 0c-.392 0-.703.032-.931.097-.225.064-.439.196-.642.396s-.362.451-.476.754v-1.166h-1.857v.904h1.043v3.372h-1.043v.904h3.189v-.904h-1.129v-1.14c0-.706.061-1.195.182-1.467.125-.275.314-.464.567-.567.257-.103.644-.155 1.161-.155h.204v-1.028h-.268zm10.223 0c-.539 0-1.135.235-1.787.706v-.626h-1.927v.904h.91v3.372h-.91v.904h2.82v-.904h-.893v-2.772c.567-.439 1.076-.658 1.525-.658.171 0 .316.061.434.182.118.118.176.373.176.765v3.388h1.889v-.904h-.872v-2.526c0-.442-.034-.778-.102-1.006-.068-.232-.212-.426-.434-.583-.218-.161-.494-.241-.829-.241zm-31.765.081v.904h.808v3.372h-.808v.904h2.623v-.904h-.797v-4.276h-1.825zm8.242 0v.904h.808v3.372h-.808v.904h2.623v-.904h-.797v-4.276h-1.825zm-46.558.492c.211.421.369.715.476.883.107.168.296.425.567.771h-8.537v.541h8.537c-.368.385-.719.936-1.054 1.654h.412c.46-.514.856-.903 1.188-1.167.332-.268.675-.487 1.028-.658v-.241c-.307-.132-.634-.332-.98-.599-.346-.271-.756-.665-1.231-1.182h-.407zm52.547.187c.446 0 .823.148 1.13.444.307.293.496.62.567.984h-3.27c.064-.421.241-.763.53-1.027.289-.268.637-.402 1.043-.402zm10.351 0c.446 0 .822.148 1.129.444.307.293.496.62.567.984h-3.27c.064-.421.241-.763.53-1.027.289-.268.637-.402 1.044-.402zm-40.617.193c.442 0 .831.162 1.166.487.335.321.503.748.503 1.28 0 .525-.168.954-.503 1.29-.335.332-.735.498-1.199.498-.475 0-.865-.166-1.172-.498-.303-.332-.455-.76-.455-1.285 0-.542.166-.972.498-1.29.332-.321.719-.482 1.162-.482zm6.032 1.868c.45 0 .894.172 1.333.514v.605c-.439.414-.904.621-1.397.621-.285 0-.512-.082-.68-.246-.164-.164-.246-.368-.246-.61 0-.26.095-.473.284-.637.189-.164.425-.246.706-.246z" font-family="Rockwell" letter-spacing="0" word-spacing="0" text-anchor="end" fill="#6d6d6d"/></g></svg>